<?xml version="1.0" standalone="no"?>
<!DOCTYPE svg PUBLIC "-//W3C//DTD SVG 1.1//EN" "http://www.w3.org/Graphics/SVG/1.1/DTD/svg11.dtd" >
<svg xmlns="http://www.w3.org/2000/svg">
<metadata>Generated by IcoMoon</metadata>
<defs>
<font id="xc-icon" horiz-adv-x="1024">
<font-face units-per-em="1024" ascent="960" descent="-64" />
<missing-glyph horiz-adv-x="1024" />
<glyph unicode="&#x20;" horiz-adv-x="512" d="" />
<glyph unicode="&#xf000;" glyph-name="plus" d="M848 412.8h-672c-19.2 0-35.2 16-35.2 35.2v0c0 19.2 16 35.2 35.2 35.2h672c19.2 0 35.2-16 35.2-35.2v0c3.2-19.2-12.8-35.2-35.2-35.2zM547.2 784v-672c0-19.2-16-35.2-35.2-35.2v0c-19.2 0-35.2 16-35.2 35.2v672c0 19.2 16 35.2 35.2 35.2v0c19.2 0 35.2-16 35.2-35.2z" />
<glyph unicode="&#xf001;" glyph-name="minus" d="M59.733 496.356h905.671c26.738 0 48.356-21.618 48.356-48.356v0c0-26.738-21.618-48.356-48.356-48.356h-905.671c-26.738 0-48.356 21.618-48.356 48.356v0c0 26.738 21.618 48.356 48.356 48.356z" />
<glyph unicode="&#xf002;" glyph-name="up" d="M544 659.2v0c-16 16-48 16-64 0l-358.4-355.2c-16-16-16-48 0-64s48-16 64 0l326.4 323.2 323.2-323.2c16-16 48-16 64 0s16 48 0 64c3.2 0-355.2 355.2-355.2 355.2z" />
<glyph unicode="&#xf003;" glyph-name="down" d="M480 236.8v0c16-16 48-16 64 0l355.2 355.2c16 16 16 48 0 64s-48 16-64 0l-323.2-323.2-323.2 326.4c-16 16-48 16-64 0s-16-48 0-64c-3.2-3.2 355.2-358.4 355.2-358.4z" />
<glyph unicode="&#xf004;" glyph-name="left" d="M300.8 480v0c-16-16-16-48 0-64l355.2-355.2c16-16 48-16 64 0 19.2 16 16 48 0 64l-323.2 323.2 326.4 323.2c16 16 16 48 0 64s-48 16-64 0c-3.2 3.2-358.4-355.2-358.4-355.2z" />
<glyph unicode="&#xf005;" glyph-name="right" d="M723.2 416v0c16 16 16 48 0 64l-355.2 358.4c-16 16-48 16-64 0s-16-48 0-64l320-326.4-323.2-323.2c-16-16-16-48 0-64s48-16 64 0c3.2-3.2 358.4 355.2 358.4 355.2z" />
<glyph unicode="&#xf006;" glyph-name="close-x" d="M866.987 734.151l-640.569-640.569c-18.773-18.773-49.493-18.773-68.267 0v0c-18.773 18.773-18.773 49.493 0 68.267l640 640.569c18.773 18.773 49.493 18.773 68.267 0v0c19.342-18.773 19.342-49.493 0.569-68.267zM226.418 802.418l640-640c18.773-18.773 18.773-49.493 0-68.267v0c-18.773-18.773-49.493-18.773-68.267 0l-640 640c-18.773 18.773-18.773 49.493 0 68.267v0c18.773 18.773 49.493 18.773 68.267 0z" />
<glyph unicode="&#xf007;" glyph-name="ding" d="M512 777.6c131.2 0 236.8-105.6 236.8-236.8v-281.6c0-22.4 6.4-44.8 19.2-60.8l38.4-51.2h-588.8l38.4 51.2c12.8 19.2 19.2 38.4 19.2 60.8v281.6c0 131.2 105.6 236.8 236.8 236.8zM512 854.4c-172.8 0-313.6-140.8-313.6-313.6v0-281.6c0-6.4-3.2-9.6-6.4-16l-67.2-96c-16-22.4-12.8-57.6 12.8-73.6 9.6-6.4 19.2-9.6 32-9.6h688c28.8 0 51.2 22.4 51.2 51.2 0 9.6-3.2 22.4-9.6 32l-67.2 96c-3.2 3.2-6.4 9.6-6.4 16v281.6c0 172.8-140.8 313.6-313.6 313.6 0 0 0 0 0 0zM537.6 880h-51.2c-22.4 0-38.4 19.2-38.4 38.4s16 41.6 38.4 41.6v0h51.2c22.4 0 38.4-19.2 38.4-38.4s-16-41.6-38.4-41.6zM604.8-64h-156.8c-22.4 0-38.4 19.2-38.4 38.4 0 22.4 19.2 38.4 38.4 38.4h156.8c22.4 0 38.4-19.2 38.4-38.4 0-22.4-16-38.4-38.4-38.4z" />
<glyph unicode="&#xf008;" glyph-name="drag-handle" d="M1009.778 448c0-9.671-3.413-18.204-10.809-25.031l-142.222-142.222c-6.827-6.827-15.36-10.809-25.031-10.809s-18.204 3.413-25.031 10.809c-6.827 6.827-10.809 15.36-10.809 25.031v71.111h-213.333v-213.333h71.68c9.671 0 18.204-3.413 25.031-10.809 6.827-6.827 10.809-15.36 10.809-25.031s-3.413-18.204-10.809-25.031l-142.222-142.222c-6.827-6.827-15.36-10.809-25.031-10.809s-18.204 3.413-25.031 10.809l-142.222 142.222c-6.827 6.827-10.809 15.36-10.809 25.031s3.413 18.204 10.809 25.031c6.827 6.827 15.36 10.809 25.031 10.809h71.111v213.333h-213.333v-71.111c0-9.671-3.413-18.204-10.809-25.031-6.827-6.827-15.36-10.809-25.031-10.809s-18.204 3.413-25.031 10.809l-142.222 142.222c-6.827 6.827-10.809 15.36-10.809 25.031s3.413 18.204 10.809 25.031l142.222 142.222c6.827 6.827 15.36 10.809 25.031 10.809s18.204-3.413 25.031-10.809c6.827-6.827 10.809-15.36 10.809-25.031v-71.111h213.333v213.333h-71.111c-9.671 0-18.204 3.413-25.031 10.809-6.827 6.827-10.809 15.36-10.809 25.031s3.413 18.204 10.809 25.031l142.222 142.222c6.827 6.827 15.36 10.809 25.031 10.809s18.204-3.413 25.031-10.809l142.222-142.222c6.827-6.827 10.809-15.36 10.809-25.031s-3.413-18.204-10.809-25.031c-6.827-6.827-15.36-10.809-25.031-10.809h-71.111v-213.333h213.333v71.111c0 9.671 3.413 18.204 10.809 25.031 6.827 6.827 15.36 10.809 25.031 10.809s18.204-3.413 25.031-10.809l142.222-142.222c6.827-6.827 10.24-15.36 10.24-25.031v0z" />
<glyph unicode="&#xf009;" glyph-name="import" d="M460.8 934.4v-310.4h-137.6c-12.8 0-22.4-16-12.8-28.8l192-278.4c6.4-9.6 22.4-9.6 28.8 0l192 278.4c9.6 12.8 0 28.8-12.8 28.8h-137.6v310.4c0 9.6-6.4 16-16 16h-76.8c-9.6 0-19.2-6.4-19.2-16zM1001.6-54.4c-246.4 0-963.2 0-963.2 0-12.8 0-22.4 9.6-22.4 22.4v352c0 12.8 9.6 22.4 22.4 22.4h25.6c12.8 0 22.4-9.6 22.4-22.4v-304h867.2v304c0 12.8 9.6 22.4 22.4 22.4h22.4c12.8 0 22.4-9.6 22.4-22.4 0 0 0-268.8 0-355.2 0-3.2-3.2-9.6-6.4-12.8-6.4-6.4-12.8-6.4-12.8-6.4z" />
<glyph unicode="&#xf00a;" glyph-name="export" d="M572.8 316.8v307.2h131.2c16 0 25.6 19.2 16 32l-185.6 272c-6.4 12.8-25.6 12.8-32 0l-188.8-272c-9.6-12.8 0-32 16-32h131.2v-307.2c0-9.6 9.6-19.2 19.2-19.2h73.6c12.8 0 19.2 9.6 19.2 19.2zM1004.8-54.4c-246.4 0-969.6 0-969.6 0-9.6 0-19.2 9.6-19.2 19.2v358.4c0 9.6 9.6 19.2 19.2 19.2h28.8c9.6 0 19.2-9.6 19.2-19.2v-307.2h867.2v307.2c0 9.6 9.6 19.2 19.2 19.2h28.8c9.6 0 19.2-9.6 19.2-19.2 0 0 0-262.4 0-355.2 0 0 0-12.8-3.2-16 0-6.4-6.4-6.4-9.6-6.4z" />
<glyph unicode="&#xf00b;" glyph-name="check" d="M383.431 120.32c-13.653 0-26.738 5.12-36.978 14.791l-308.907 301.511c-20.48 19.911-20.48 52.338 0 72.249s53.476 19.911 73.956 0l271.36-264.533 529.067 515.982c20.48 19.911 53.476 19.911 73.956 0s20.48-52.338 0-72.249l-566.044-552.391c-9.671-10.24-23.324-15.36-36.409-15.36v0z" />
<glyph unicode="&#xf00c;" glyph-name="edit" d="M908.8 560c-22.4 0-41.6-19.2-41.6-41.6v-444.8c0-6.4-3.2-9.6-9.6-9.6h-713.6c-6.4 0-9.6 3.2-9.6 9.6v713.6c0 6.4 3.2 9.6 9.6 9.6h528c16 0 48 9.6 48 41.6s-28.8 41.6-48 41.6h-579.2c-22.4 0-38.4-16-38.4-38.4v-816c0-22.4 19.2-41.6 41.6-41.6h816c22.4 0 41.6 19.2 41.6 41.6v492.8c-3.2 22.4-22.4 41.6-44.8 41.6v0zM284.8 208c19.2-19.2 44.8-6.4 51.2 0 156.8 160 611.2 611.2 611.2 611.2 12.8 12.8 16 38.4 0 54.4-12.8 12.8-41.6 12.8-51.2 0l-611.2-614.4c-12.8-9.6-16-35.2 0-51.2z" />
<glyph unicode="&#xf00d;" glyph-name="delete" d="M779.378-31.573h-548.409c-48.924 0-88.178 39.253-88.178 88.178v683.236c0 19.911 15.929 35.271 35.271 35.271s35.271-15.929 35.271-35.271v-683.236c0-9.671 7.964-17.636 17.636-17.636h547.84c9.671 0 17.636 7.964 17.636 17.636v683.236c0 19.911 15.929 35.271 35.271 35.271s35.271-15.929 35.271-35.271v-683.236c0.569-48.924-39.253-88.178-87.609-88.178zM939.236 731.307h-868.124c-19.911 0-35.271 15.929-35.271 35.271 0 19.911 15.929 35.271 35.271 35.271h868.693c19.911 0 35.271-15.929 35.271-35.271s-15.929-35.271-35.84-35.271zM411.876 127.147c-19.911 0-35.271 15.929-35.271 35.271v459.662c0 19.911 15.929 35.271 35.271 35.271s35.271-15.929 35.271-35.271v-459.662c0-19.342-15.929-35.271-35.271-35.271zM620.658 127.147c-19.911 0-35.271 15.929-35.271 35.271v459.662c0 19.911 15.929 35.271 35.271 35.271s35.271-15.929 35.271-35.271v-459.662c0.569-19.342-15.36-35.271-35.271-35.271zM575.716 872.391h-141.084c-19.911 0-35.271 15.929-35.271 35.271s16.498 35.271 35.271 35.271h141.653c19.911 0 35.271-15.929 35.271-35.271s-15.929-35.271-35.84-35.271z" />
<glyph unicode="&#xf00e;" glyph-name="more-landscape" d="M206.507 444.018c0-55.182-44.942-97.28-100.124-97.28s-97.849 44.942-97.849 97.28c0 55.182 44.942 100.124 97.28 100.124 26.169 0 50.062-10.809 71.111-29.013 18.773-21.049 29.582-44.373 29.582-71.111v0zM612.124 444.018c0-55.182-44.942-97.28-100.124-97.28s-97.28 44.942-97.28 97.28c0 55.182 44.942 100.124 97.28 100.124 26.169 0 50.062-10.809 71.111-29.013 18.773-21.049 29.013-44.373 29.013-71.111v0zM1015.467 444.018c0-55.182-44.942-97.28-100.124-97.28s-100.124 44.942-100.124 97.28c0 26.169 10.809 50.062 29.013 71.111 18.204 18.204 44.942 29.013 71.111 29.013s50.062-10.809 71.111-29.013c18.204-21.049 29.013-44.373 29.013-71.111v0z" />
<glyph unicode="&#xf00f;" glyph-name="end-arrow" d="M740.693 16.213c57.458 26.738 108.658 64.284 150.756 110.933 42.667 46.649 75.093 101.831 96.142 161.564 20.48 58.027 29.013 118.898 26.738 180.338-2.844 61.44-17.067 121.173-42.098 176.924-26.169 57.458-63.716 109.227-110.364 152.462-91.022 85.333-213.333 129.707-337.92 124.018-125.156-5.689-242.347-61.44-325.973-154.169-36.978-40.96-67.129-87.609-87.609-138.809l-101.262 24.462 84.196-285.582 202.524 216.178-95.573 22.756c16.498 36.409 38.116 69.404 64.853 98.987 139.378 154.169 377.173 166.684 531.911 27.307 1.138-1.138 2.276-2.276 3.413-3.413 154.169-142.222 164.978-385.138 23.893-541.013-139.378-154.169-377.742-166.684-531.911-26.738-1.138 1.138-2.276 1.707-3.413 2.844l-61.44-68.267c91.591-85.333 213.333-129.707 338.489-124.018 60.302 2.844 120.036 17.636 174.649 43.236v0z" />
<glyph unicode="&#xf010;" glyph-name="disable" d="M512-42.951c-270.791 0-490.951 219.591-490.951 490.951s220.16 490.951 490.951 490.951 490.382-219.591 490.382-490.951-219.591-490.951-490.382-490.951zM512 28.16c231.538 0 419.84 187.733 419.84 419.271s-187.733 419.84-419.271 419.84c0 0 0 0 0 0-231.538 0-419.271-187.733-419.271-419.84-0.569-230.969 187.164-418.702 418.702-419.271zM145.636 764.302l50.062 50.062 682.667-682.667-50.062-50.062-682.667 682.667z" />
<glyph unicode="&#xf011;" glyph-name="cancel" d="M512 947.2c-275.2 0-499.2-224-499.2-499.2s224-499.2 499.2-499.2 499.2 224 499.2 499.2-224 499.2-499.2 499.2zM512 19.2c-236.8 0-428.8 192-428.8 428.8s192 428.8 428.8 428.8 428.8-192 428.8-428.8-192-428.8-428.8-428.8zM761.6 640l-57.6 57.6-192-198.4-192 198.4-57.6-57.6 198.4-192-198.4-192 57.6-57.6 192 198.4 192-192 51.2 51.2-192 192c0 0 198.4 192 198.4 192z" />
<glyph unicode="&#xf012;" glyph-name="report" d="M974.507 221.582h-10.809v581.404h10.809c17.636 0 32.427 14.222 32.427 32.427s-14.222 32.427-32.427 32.427h-925.013c-17.636 0-32.427-14.222-32.427-32.427s14.222-32.427 32.427-32.427h10.809v-580.836h-10.809c-17.636 0-32.427-14.222-32.427-32.427s14.222-32.427 32.427-32.427h419.271v-64.853h-75.662c-17.636 0-32.427-14.222-32.427-32.427 0-17.636 14.222-32.427 32.427-32.427h215.040c17.636 0 32.427 14.222 32.427 32.427 0 17.636-14.222 32.427-32.427 32.427h-75.093v65.422h440.889c17.636 0 32.427 14.222 32.427 32.427s-14.222 31.289-31.858 31.289zM124.587 221.582v581.404h774.258v-580.836l-774.258-0.569zM749.227 657.351l-197.404-197.404-107.52 105.813c-8.533 8.533-21.618 8.533-30.151 0l-167.253-167.253c-8.533-8.533-8.533-21.618 0-30.151s21.618-8.533 30.151 0l152.462 152.462 106.382-106.951c8.533-8.533 21.618-8.533 30.151 0l213.333 212.764c8.533 8.533 8.533 21.618 0 30.151s-22.187 9.102-30.151 0.569z" />
<glyph unicode="&#xf013;" glyph-name="save" d="M971.662 936.676h-915.342c-21.049 0-37.547-15.929-37.547-37.547v-916.48c0-21.049 15.929-37.547 37.547-37.547h916.48c21.049 0 37.547 15.929 37.547 37.547v916.48c-0.569 21.618-17.067 37.547-38.684 37.547v0zM703.147 862.151v0h123.449v-254.293h-124.018l0.569 254.293zM214.471 859.307v0h414.151v-224.142h-413.582l-0.569 224.142zM934.684 20.196v0h-841.956v841.956h44.373v-263.964c0-21.049 15.929-37.547 34.702-37.547v0 0h678.116c11.378 0 23.324 11.378 23.324 23.324v278.187h60.871v-841.956h0.569zM852.764 436.622v0h-677.547c-11.378 0-23.324-11.378-23.324-23.324v-318.009c0-11.378 9.671-23.324 23.324-23.324h675.271c11.378 0 23.324 9.671 23.324 23.324v318.009c0 11.947-9.102 23.324-21.049 23.324v0zM829.44 119.182v0h-630.898v271.36h630.898v-271.36z" />
<glyph unicode="&#xf014;" glyph-name="bgcolor" d="M870.4 377.6v0c-3.2 3.2-6.4 9.6-9.6 16l128 118.4-448 448-505.6-534.4 416-416 102.4 96c19.2-96 102.4-169.6 201.6-169.6 115.2 0 208 92.8 208 208 0 32-9.6 67.2-25.6 105.6-12.8 41.6-38.4 83.2-67.2 128zM540.8 873.6l281.6-281.6-544-3.2 262.4 284.8zM553.6 179.2l-96-89.6-339.2 336 96 102.4h668.8l19.2-19.2-83.2-80c-6.4 9.6-12.8 19.2-22.4 28.8-6.4 9.6-12.8 16-22.4 22.4-3.2 3.2-6.4 6.4-6.4 9.6l-16 19.2-16-19.2c-3.2-3.2-3.2-3.2-6.4-9.6-6.4-6.4-12.8-12.8-22.4-22.4-22.4-25.6-41.6-51.2-60.8-80-28.8-41.6-51.2-83.2-67.2-121.6-16-28.8-22.4-54.4-25.6-76.8zM748.8 3.2c-83.2 0-153.6 67.2-153.6 153.6v3.2c0 22.4 6.4 51.2 19.2 83.2 0 0 0 3.2 3.2 3.2 12.8 35.2 35.2 70.4 64 108.8 19.2 25.6 38.4 51.2 57.6 76.8 3.2 3.2 6.4 6.4 9.6 12.8 3.2-3.2 6.4-6.4 9.6-12.8 6.4-9.6 16-19.2 22.4-32 9.6-12.8 19.2-25.6 28.8-38.4 3.2-3.2 3.2-3.2 6.4-9.6 28.8-38.4 48-76.8 64-112 12.8-32 22.4-57.6 22.4-83.2 0-86.4-67.2-153.6-153.6-153.6z" />
<glyph unicode="&#xf015;" glyph-name="border-style" d="M906.24 842.24h-788.48c-51.2 0-92.729-37.547-92.729-83.058v-622.933c0-45.511 41.529-83.058 92.729-83.058h788.48c51.2 0 92.729 37.547 92.729 83.058v622.933c0 46.080-41.529 83.058-92.729 83.058v0zM929.564 164.124c0-22.187-19.911-40.391-43.804-40.391h-747.52c-23.893 0-43.804 18.204-43.804 40.391v567.751c0 22.187 19.911 40.391 43.804 40.391h747.52c23.893 0 43.804-18.204 43.804-40.391v-567.751zM686.080 680.107c-70.542 0-127.431-56.889-127.431-127.431s56.889-127.431 127.431-127.431 127.431 56.889 127.431 127.431-56.889 127.431-127.431 127.431zM686.080 494.649c-31.858 0-58.027 26.169-58.027 58.027s26.169 58.027 58.027 58.027 58.027-26.169 58.027-58.027c0-32.427-26.169-58.027-58.027-58.027zM245.191 587.378h162.133c19.342 0 34.702 15.929 34.702 34.702s-15.929 34.702-34.702 34.702h-162.133c-19.342 0-34.702-15.929-34.702-34.702s15.929-34.702 34.702-34.702zM245.191 401.351h208.782c19.342 0 34.702 15.929 34.702 34.702s-15.929 34.702-34.702 34.702h-208.782c-19.342 0-34.702-15.929-34.702-34.702s15.929-34.702 34.702-34.702zM778.809 308.622h-533.618c-19.342 0-34.702-15.929-34.702-34.702 0-19.342 15.929-34.702 34.702-34.702h533.618c19.342 0 34.702 15.929 34.702 34.702 0 19.342-15.36 34.702-34.702 34.702v0z" />
<glyph unicode="&#xf016;" glyph-name="form-engine" d="M857.884-51.484h-691.769c-63.716 0-115.484 51.769-115.484 115.484v768c0 63.716 51.769 115.484 115.484 115.484h692.338c63.716 0 115.484-51.769 115.484-115.484v-768c-0.569-63.716-52.338-115.484-116.053-115.484zM166.116 870.684c-21.049 0-38.684-17.067-38.684-38.684v-768c0-21.049 17.067-38.684 38.684-38.684h692.338c0 0 0 0 0 0 21.049 0 38.684 17.067 38.684 38.116v768c0 21.049-17.067 38.116-38.684 38.116l-692.338 1.138zM666.738 408.747h-424.391c0 0 0 0 0 0-21.049 0-38.684 17.067-38.684 38.116s17.067 38.684 38.684 38.684h424.391c0 0 0 0 0 0 21.049 0 38.684-17.067 38.684-38.116 0-21.618-17.067-38.684-38.684-38.684v0zM779.947 179.484h-537.6c0 0 0 0 0 0-21.049 0-38.684 17.067-38.684 38.684 0 21.049 17.067 38.684 38.684 38.684 0 0 0 0 0 0h537.6c21.049 0 38.684-17.067 38.684-38.684-0.569-21.049-17.636-38.684-38.684-38.684v0 0zM204.231 696.036c0-31.858 25.6-57.458 57.458-57.458 0 0 0 0 0 0s0 0 0 0c31.858 0 57.458 25.6 57.458 57.458s-25.6 57.458-57.458 57.458c0 0 0 0 0 0s0 0 0 0c-31.858 0-57.458-25.6-57.458-57.458v0zM453.404 696.036c0-31.858 25.6-57.458 57.458-57.458 0 0 0 0 0 0s0 0 0 0 57.458 25.6 57.458 57.458c0 31.858-25.6 57.458-57.458 57.458 0 0 0 0 0 0s0 0 0 0c-31.858 0-57.458-25.6-57.458-57.458v0zM703.147 696.036c0-31.858 25.6-57.458 57.458-57.458 0 0 0 0 0 0s0 0 0 0 57.458 25.6 57.458 57.458c0 31.858-25.6 57.458-57.458 57.458 0 0 0 0 0 0s0 0 0 0c-31.289 0-57.458-25.6-57.458-57.458v0z" />
<glyph unicode="&#xf017;" glyph-name="copy" d="M848 198.4v0c0-19.2 16-35.2 35.2-35.2h86.4c19.2 0 35.2 16 35.2 35.2v710.4c0 19.2-16 35.2-35.2 35.2h-707.2c-19.2 0-35.2-16-35.2-35.2v-86.4c0-19.2 16-35.2 35.2-35.2v0c19.2 0 35.2 16 35.2 35.2v44.8c0 9.6 6.4 16 16 16h608c9.6 0 16-6.4 16-16v-617.6c0-9.6-6.4-16-16-16h-41.6c-16 0-32-16-32-35.2zM720 736h-633.6c-38.4 0-67.2-28.8-67.2-67.2v-646.4c0-22.4 12.8-64 64-64h646.4c35.2 0 64 28.8 64 64v649.6c0 44.8-44.8 64-73.6 64zM704 22.4h-592c-16 0-28.8 12.8-28.8 28.8v592c0 16 12.8 28.8 28.8 28.8h592c16 0 28.8-12.8 28.8-28.8v-588.8c0-19.2-12.8-32-28.8-32z" />
<glyph unicode="&#xf018;" glyph-name="more" d="M363.52 484.978h-223.004c-61.44 0-111.502 50.062-111.502 110.933v223.573c0 61.44 50.062 111.502 111.502 111.502h223.004c61.44 0 111.502-50.062 111.502-111.502v-223.004c0-60.871-50.631-111.502-111.502-111.502zM140.516 856.462c-20.48 0-36.978-16.498-36.978-36.978v-223.004c0-20.48 16.498-36.978 36.978-36.978h223.004c20.48 0 36.978 16.498 36.978 36.978v223.004c0 20.48-16.498 36.978-36.978 36.978 0 0-223.004 0-223.004 0zM883.484 484.978h-223.004c-61.44 0-111.502 50.062-111.502 111.502v223.004c0 61.44 50.062 111.502 111.502 111.502h223.004c61.44 0 111.502-50.062 111.502-111.502v-223.004c0-60.871-50.062-111.502-111.502-111.502zM660.48 856.462c-20.48 0-36.978-16.498-36.978-36.978v-223.004c0-20.48 16.498-36.978 36.978-36.978h223.004c20.48 0 36.978 16.498 36.978 36.978v223.004c0 20.48-16.498 36.978-36.978 36.978 0 0-223.004 0-223.004 0zM363.52-34.987h-223.004c-61.44 0-111.502 50.062-111.502 111.502v223.004c0 61.44 50.062 111.502 111.502 111.502h223.004c61.44 0 111.502-50.062 111.502-111.502v-223.004c0-61.44-50.631-111.502-111.502-111.502zM140.516 336.498c-20.48 0-36.978-16.498-36.978-36.978v-223.004c0-20.48 16.498-36.978 36.978-36.978h223.004c20.48 0 36.978 16.498 36.978 36.978v223.004c0 20.48-16.498 36.978-36.978 36.978 0 0-223.004 0-223.004 0zM883.484-34.987h-223.004c-61.44 0-111.502 50.062-111.502 111.502v223.004c0 61.44 50.062 111.502 111.502 111.502h223.004c61.44 0 111.502-50.062 111.502-111.502v-223.004c0-61.44-50.062-111.502-111.502-111.502zM660.48 336.498c-20.48 0-36.978-16.498-36.978-36.978v-223.004c0-20.48 16.498-36.978 36.978-36.978h223.004c20.48 0 36.978 16.498 36.978 36.978v223.004c0 20.48-16.498 36.978-36.978 36.978 0 0-223.004 0-223.004 0z" />
<glyph unicode="&#xf019;" glyph-name="more-vertical" d="M513.707 142.507c55.182 0 97.28-44.942 97.28-100.124s-44.942-97.849-97.28-97.849c-55.182 0-100.124 44.942-100.124 97.28 0 26.169 10.809 50.062 29.013 71.111 21.049 18.773 44.373 29.582 71.111 29.582v0zM513.707 548.124c55.182 0 97.28-44.942 97.28-100.124s-44.942-97.28-97.28-97.28c-55.182 0-100.124 44.942-100.124 97.28 0 26.169 10.809 50.062 29.013 71.111 21.049 18.773 44.373 29.013 71.111 29.013v0zM513.707 951.467c55.182 0 97.28-44.942 97.28-100.124s-44.942-100.124-97.28-100.124c-26.169 0-50.062 10.809-71.111 29.013-18.204 18.204-29.013 44.942-29.013 71.111s10.809 50.062 29.013 71.111c21.049 18.204 44.373 29.013 71.111 29.013v0z" />
<glyph unicode="&#xf01a;" glyph-name="personal-home" d="M987.022-26.453h-961.422v960.853h961.422v-960.853zM99.556 46.933h813.511v813.511h-813.511v-813.511zM62.578 712.533h887.467v-73.956h-887.467v73.956zM62.578 380.871h458.524v-73.956h-458.524v73.956zM493.227 675.556h73.956v-665.6h-73.956v665.6zM164.978 897.422h73.956v-221.867h-73.956v221.867zM301.511 903.111h73.956v-227.556h-73.956v227.556z" />
<glyph unicode="&#xf01b;" glyph-name="process" d="M578.56 878.649h-133.12c-55.182 0-99.556-44.373-99.556-99.556s44.373-99.556 99.556-99.556h132.551c55.182 0 99.556 44.373 99.556 99.556s-44.373 99.556-98.987 99.556zM578.56 745.529h-133.12c-18.204 0-32.996 14.791-32.996 32.996s14.791 32.996 32.996 32.996h132.551c18.204 0 32.996-14.791 32.996-32.996 0.569-18.204-14.222-32.996-32.427-32.996zM578.56 546.418h-133.12c-55.182 0-99.556-44.373-99.556-99.556s44.373-99.556 99.556-99.556h132.551c55.182 0 99.556 44.373 99.556 99.556s-44.373 99.556-98.987 99.556zM578.56 413.298h-133.12c-18.204 0-32.996 14.791-32.996 32.996s14.791 32.996 32.996 32.996h132.551c18.204 0 32.996-14.791 32.996-32.996 0.569-17.636-14.222-32.427-32.427-32.996zM578.56 214.187h-133.12c-55.182 0-99.556-44.373-99.556-99.556s44.373-99.556 99.556-99.556h132.551c55.182 0 99.556 44.373 99.556 99.556 0.569 55.182-44.373 99.556-98.987 99.556zM578.56 81.636h-133.12c-18.204 0-32.996 14.791-32.996 32.996s14.791 32.996 32.996 32.996h132.551c18.204 0 32.996-14.791 32.996-32.996 0.569-18.204-14.222-32.996-32.427-32.996zM213.333 148.196c-35.271 0-68.836 13.653-93.867 38.684s-38.684 58.596-38.684 93.867c0 35.271 13.653 68.836 38.684 93.867s58.596 38.684 93.867 38.684h66.56v66.56h-66.56c-109.796 0-199.111-89.316-199.111-199.111s89.316-199.111 199.111-199.111v-66.56l99.556 99.556-99.556 99.556v-65.991zM810.667 812.089h-66.56v-66.56h66.56c35.271 0 68.836-13.653 93.867-38.684s38.684-58.596 38.684-93.867c0-35.271-13.653-68.836-38.684-93.867s-58.596-38.684-93.867-38.684v65.991l-99.556-99.556 99.556-99.556v65.991c109.796 0 199.111 89.316 199.111 199.111s-88.747 199.68-199.111 199.68v0z" />
<glyph unicode="&#xf01c;" glyph-name="process-manage" d="M684.373 823.467c-133.689 59.164-320.853 38.684-439.751-65.422l-47.218 56.32c148.48 128 347.022 151.324 516.551 80.213l26.738 65.422 80.213-160.427-160.427-29.582 23.893 53.476zM277.618-64l26.738 65.422c168.96-73.956 368.071-47.218 516.551 80.213l-47.218 56.32c-119.467-104.107-303.218-124.587-439.751-65.422l23.893 56.32-160.427-29.582 80.213-163.271zM4.551 677.831l62.578-26.738c-74.524-168.96-47.787-368.071 79.644-515.982l56.32 47.218c-104.107 118.898-124.587 302.649-65.422 439.182l56.32-23.893-29.013 160.427-160.427-80.213zM1019.449 214.756l-62.578 26.738c73.956 168.96 47.218 368.071-80.213 516.551l-56.32-47.218c104.107-118.898 124.587-302.649 65.422-439.182l-56.32 23.893 29.582-160.427 160.427 79.644z" />
<glyph unicode="&#xf01d;" glyph-name="home-engine" d="M876.8 902.4h-732.8c-54.4 0-102.4-44.8-102.4-102.4v-521.6c0-57.6 48-105.6 105.6-105.6h329.6v-105.6h-172.8c-25.6 0-51.2-12.8-51.2-38.4s25.6-35.2 51.2-35.2h419.2c25.6 0 51.2 9.6 51.2 35.2s-25.6 38.4-51.2 38.4h-172.8v105.6h329.6c57.6 0 105.6 48 105.6 105.6v521.6c-3.2 57.6-51.2 102.4-108.8 102.4zM918.4 288c0-28.8-22.4-54.4-51.2-54.4h-710.4c-28.8 0-51.2 25.6-51.2 54.4v499.2c0 28.8 22.4 54.4 51.2 54.4h710.4c28.8 0 51.2-25.6 51.2-54.4v-499.2zM198.4 713.6c0-19.2 16-35.2 35.2-35.2s35.2 16 35.2 35.2-19.2 32-38.4 32-32-12.8-32-32c0 0 0 0 0 0zM300.8 713.6c0-19.2 16-35.2 35.2-35.2s35.2 16 35.2 35.2v0c0 19.2-16 35.2-35.2 35.2s-35.2-16-35.2-35.2v0zM400 713.6c0-19.2 16-35.2 35.2-35.2s35.2 16 35.2 35.2v0c0 19.2-16 35.2-35.2 35.2-19.2-3.2-35.2-16-35.2-35.2v0z" />
<glyph unicode="&#xf01e;" glyph-name="content" d="M868.693-50.916h-710.542c-78.507 0-142.222 63.147-142.222 141.084v571.733c0 77.938 63.716 141.084 142.222 141.084h106.382v70.542h95.573c31.289 42.098 87.609 70.542 153.031 70.542s122.311-28.444 153.031-70.542h96.142v-70.542h106.382c78.507 0 142.222-63.147 142.222-141.084v-571.733c0-77.938-63.716-141.084-142.222-141.084zM691.2 802.987h-79.076c0 38.684-44.373 70.542-98.418 70.542-54.613 0-98.418-31.289-98.418-70.542h-79.644v-141.084h354.987v141.084zM939.804 661.902c0 38.684-31.858 70.542-71.111 70.542h-106.382v-141.084h-497.778v141.084h-106.382c-39.253 0-71.111-31.289-71.111-70.542v-571.733c0-38.684 31.858-70.542 71.111-70.542h710.542c39.253 0 71.111 31.289 71.111 70.542v571.733zM762.311 110.649h-497.778c-19.342 0-35.271 15.929-35.271 35.271s15.929 35.271 35.271 35.271h497.778c19.342 0 35.271-15.929 35.271-35.271s-15.929-35.271-35.271-35.271zM762.311 270.507h-497.778c-19.342 0-35.271 15.929-35.271 35.271s15.929 35.271 35.271 35.271h497.778c19.342 0 35.271-15.929 35.271-35.271s-15.929-35.271-35.271-35.271zM762.311 429.796h-497.778c-19.342 0-35.271 15.929-35.271 35.271s15.929 35.271 35.271 35.271h497.778c19.342 0 35.271-15.929 35.271-35.271s-15.929-35.271-35.271-35.271z" />
<glyph unicode="&#xf01f;" glyph-name="org-manage" d="M750.364 344.462v64.284c0 4.551-3.982 8.533-8.533 8.533h-459.662c-4.551 0-8.533-3.982-8.533-8.533v-64.284h101.262c18.773 0 33.564-15.36 33.564-33.564v-301.511c0-18.773-15.36-33.564-33.564-33.564h-301.511c-18.773 0-33.564 15.36-33.564 33.564v301.511c0 18.773 15.36 33.564 33.564 33.564h133.12v106.951c0 18.773 15.36 33.564 33.564 33.564h238.364v66.56h-117.191c-18.773 0-33.564 15.36-33.564 33.564v301.511c0 18.773 15.36 33.564 33.564 33.564h301.511c18.773 0 33.564-15.36 33.564-33.564v-301.511c0-18.773-15.36-33.564-33.564-33.564h-117.191v-66.56h238.364c18.773 0 33.564-15.36 33.564-33.564v-106.382h133.12c18.773 0 33.564-15.36 33.564-33.564v-301.511c0-18.773-15.36-33.564-33.564-33.564h-301.511c-18.773 0-33.564 15.36-33.564 33.564v301.511c0 18.773 15.36 33.564 33.564 33.564h101.262zM403.342 853.049c-4.551 0-8.533-3.982-8.533-8.533v-217.316c0-4.551 3.982-8.533 8.533-8.533h217.316c4.551 0 8.533 3.982 8.533 8.533v217.316c0 4.551-3.982 8.533-8.533 8.533h-217.316zM115.484 277.333c-4.551 0-8.533-3.982-8.533-8.533v-217.316c0-4.551 3.982-8.533 8.533-8.533h217.316c4.551 0 8.533 3.982 8.533 8.533v217.316c0 4.551-3.982 8.533-8.533 8.533h-217.316zM691.2 277.333c-4.551 0-8.533-3.982-8.533-8.533v-217.316c0-4.551 3.982-8.533 8.533-8.533h217.316c4.551 0 8.533 3.982 8.533 8.533v217.316c0 4.551-3.982 8.533-8.533 8.533h-217.316z" />
<glyph unicode="&#xf020;" glyph-name="attest" d="M529.067-64c-149.618 0-427.236 228.693-427.236 444.871v430.080l42.667 0.569c1.138 0 95.573 2.276 193.422 41.529 100.124 40.96 164.978 88.178 165.547 88.747l25.6 18.204 25.6-18.204c0.569-0.569 65.422-47.218 165.547-88.178 97.849-39.822 192.853-41.529 193.422-41.529l42.098-0.569v-430.649c0.569-216.178-277.049-444.871-426.667-444.871v0zM188.302 728.462v-348.16c0-167.253 241.778-358.4 340.764-358.4s340.764 191.147 340.764 358.4v348.16c-42.098 4.551-110.933 15.929-182.044 44.942-72.818 30.151-128.569 62.009-158.72 81.351-30.151-19.342-85.902-51.769-158.72-81.351-71.111-28.444-139.947-40.391-182.044-44.942v0zM506.311 218.738l-181.476 154.738 55.751 65.422 116.622-98.987 220.729 254.293 65.422-56.32-277.049-319.147z" />
<glyph unicode="&#xf021;" glyph-name="fa-calendar" d="M864.256-33.28h-704.512c-79.36-0.512-143.872 63.488-144.384 142.848v44.544h66.048v-44.544c0-42.496 35.328-76.8 78.336-76.8h704.512c43.008 0 78.336 34.304 78.336 76.8v622.080c0 42.496-35.328 76.8-78.336 76.8h-704.512c-43.008 0-78.336-34.304-78.336-76.8v-415.744h-66.048v415.744c0 78.848 65.024 142.848 144.896 142.848h704.512c79.872 0 144.896-64 144.896-142.848v-621.568c-1.536-79.872-66.048-143.872-145.408-143.36zM82.432 617.984h865.28v-68.096h-865.28v68.096zM460.288 423.936h331.264v-59.392h-331.264v59.392zM217.088 277.504h574.464v-59.904h-574.464v59.904zM295.936 929.28h67.072v-176.128h-67.072v176.128zM691.712 929.28h67.072v-176.128h-67.072v176.128z" />
<glyph unicode="&#xf022;" glyph-name="design" d="M1009.778 688.64l-246.898 246.898-246.898-246.898-246.898 246.898-246.898-246.898 246.898-246.898-246.898-246.898v-247.467h246.898l246.898 246.898 246.898-246.898 246.898 246.898-246.898 246.898 246.898 247.467zM275.342 521.956l104.676 104.676-43.236 43.236-104.676-104.676-36.978 36.978 110.933 110.933-49.493 43.236-104.676-110.933-43.236 43.236 160.427 160.427 203.662-203.662-160.427-160.427c0 0-36.978 36.978-36.978 36.978zM83.627 9.387v123.449l123.449-123.449h-123.449zM269.084 33.849l-160.427 160.427 654.222 654.222 160.427-160.427c0 0.569-654.222-654.222-654.222-654.222zM923.307 194.844l-160.427-160.427-43.236 43.236 110.933 110.933-43.236 43.236-110.933-110.933-36.978 36.978 110.933 110.933-49.493 43.236-110.933-110.933-36.978 36.978 160.427 160.427 209.92-203.662z" />
<glyph unicode="&#xf023;" glyph-name="setting" d="M560.924-49.778h-97.849c-29.013 0-55.182 17.636-65.991 44.373-6.258 15.36-15.36 38.684-25.031 69.404-11.378 3.982-22.756 8.533-33.564 13.653-28.444-14.791-51.2-25.031-66.56-31.289-26.738-11.378-57.458-5.12-77.938 15.36l-68.836 68.836c-20.48 20.48-26.738 51.2-15.36 77.938 6.258 15.36 16.498 38.116 31.289 66.56-5.12 10.809-9.671 22.187-13.653 33.564-30.72 9.671-54.044 18.773-69.404 25.031-26.738 10.809-44.373 36.978-44.373 65.991v97.28c0 29.013 17.636 55.182 44.373 65.991 15.36 6.258 38.684 15.36 69.404 25.031 3.982 11.378 8.533 22.756 13.653 33.564-14.791 28.444-25.031 51.2-31.289 66.56-11.378 26.738-5.12 57.458 15.36 77.938l69.404 68.836c20.48 20.48 51.2 26.738 77.938 15.36 15.36-6.258 38.116-16.498 66.56-31.289 10.809 5.12 22.187 9.671 33.564 13.653 9.671 30.72 18.773 54.044 25.031 69.404 10.809 26.738 36.978 44.373 65.991 44.373h97.849c29.013 0 55.182-17.636 65.991-44.373 6.258-15.36 15.36-38.684 25.031-69.404 11.378-3.982 22.756-8.533 33.564-13.653 28.444 14.791 51.2 25.031 66.56 31.289 26.738 11.378 57.458 5.12 77.938-15.36l68.267-69.404c20.48-20.48 26.738-51.2 15.36-77.938-6.258-15.36-16.498-38.116-31.289-66.56 5.12-10.809 9.671-22.187 13.653-33.564 30.72-9.671 54.044-18.773 69.404-25.031 26.738-10.809 44.373-36.978 44.373-65.991v-97.849c0-29.013-17.636-55.182-44.373-65.991-15.36-6.258-38.684-15.36-69.404-25.031-3.982-11.378-8.533-22.756-13.653-33.564 14.791-28.444 25.031-51.2 31.289-66.56 11.378-26.738 5.12-57.458-15.36-77.938l-69.404-68.267c-20.48-20.48-51.2-26.738-77.938-15.36-15.36 6.258-38.116 16.498-66.56 31.289-10.809-5.12-22.187-9.671-33.564-13.653-9.671-30.72-18.773-54.044-25.031-69.404-10.24-26.169-36.409-43.804-65.422-43.804zM338.489 152.747c5.689 0 11.378-1.138 16.498-3.982 18.204-9.671 36.978-17.636 56.889-23.324 11.378-3.413 19.911-12.516 23.324-23.893 10.809-36.409 21.049-63.716 27.876-80.213h97.849c6.827 16.498 17.067 43.804 27.876 80.213 3.413 11.378 11.947 20.48 23.324 23.893 19.342 6.258 38.684 14.222 56.889 23.324 10.24 5.689 23.324 5.689 33.564 0 33.564-18.204 59.733-30.151 76.231-36.978l69.404 69.404c-6.827 16.498-18.773 43.236-36.978 76.231-5.689 10.24-5.689 22.756 0 33.564 9.671 18.204 17.636 36.978 23.324 56.889 3.413 11.378 12.516 19.911 23.893 23.324 36.409 10.809 63.716 21.049 80.213 27.876v97.849c-16.498 6.827-43.804 17.067-80.213 27.876-11.378 3.413-20.48 11.947-23.893 23.324-6.258 19.342-14.222 38.684-23.324 56.889-5.689 10.24-5.689 23.324 0 33.564 18.204 33.564 30.151 59.733 36.978 76.231l-69.404 69.404c-16.498-6.827-43.236-18.773-76.231-36.978-10.24-5.689-22.756-5.689-33.564 0-18.204 9.671-36.978 17.636-56.889 23.324-11.378 3.413-19.911 12.516-23.324 23.893-10.809 36.409-21.049 63.716-27.876 80.213h-97.849c-6.827-16.498-17.067-43.804-27.876-79.644-3.413-11.378-11.947-20.48-23.893-24.462-19.342-6.258-38.684-14.222-56.889-23.324-10.24-5.689-23.324-5.689-33.564 0-33.564 18.204-59.733 30.151-76.231 36.978l-68.836-69.404c6.827-16.498 18.773-43.236 36.978-76.231 5.689-10.24 5.689-22.756 0-33.564-9.671-18.204-17.636-36.978-23.324-56.889-3.413-11.378-12.516-19.911-23.893-23.324-36.409-10.809-63.716-21.049-80.213-27.876v-97.849c16.498-6.827 43.236-17.067 79.644-27.876 11.947-3.413 21.618-12.516 25.031-24.462 6.258-18.773 13.653-37.547 22.756-55.182 6.258-10.809 5.689-24.462-0.569-35.271-17.636-32.996-29.582-59.164-36.409-75.662l69.404-69.404c16.498 6.827 43.236 18.773 76.231 36.978 5.12 3.413 10.809 4.551 17.067 4.551zM512 234.667c-117.76 0-213.333 95.573-213.333 213.333s95.573 213.333 213.333 213.333 213.333-95.573 213.333-213.333-95.573-213.333-213.333-213.333zM512 590.222c-78.507 0-142.222-63.716-142.222-142.222s63.716-142.222 142.222-142.222 142.222 63.716 142.222 142.222c0 78.507-63.716 142.222-142.222 142.222z" />
<glyph unicode="&#xf024;" glyph-name="logout" d="M892.018 404.764h-390.827c-18.204 0-32.427 14.222-32.427 32.427s14.791 32.427 32.427 32.427h399.36l-83.058 83.058c-12.516 12.516-12.516 32.996 0 46.080 12.516 12.516 33.564 12.516 46.080 0l121.742-121.173c6.258-1.138 11.947-3.982 17.067-9.102 7.396-7.396 10.24-17.636 9.102-26.738 1.138-9.671-1.707-19.342-9.102-27.307-4.551-4.551-10.809-7.964-17.067-9.102l-121.742-121.173c-12.516-12.516-33.564-12.516-46.080 0-13.084 13.084-12.516 33.564 0 46.080l74.524 74.524zM794.738 752.356v108.089c0 47.787-38.684 87.040-87.040 87.040h-564.907c-47.787 0-87.040-38.684-87.040-87.040v-825.458c0-47.787 38.684-87.040 87.040-87.040h564.907c47.787 0 87.040 38.684 87.040 87.040v108.658c0 18.204-14.791 32.427-32.427 32.427-18.204 0-32.427-14.791-32.427-32.427v-87.040c0-23.893-19.342-43.236-43.236-43.236h-522.24c-23.893 0-43.236 19.342-43.236 43.236v782.222c0 23.893 19.342 43.236 43.236 43.236h521.671c23.893 0 43.236-19.342 43.236-43.236v-87.040c0-18.204 14.791-32.427 32.427-32.427 18.204 0 32.996 14.791 32.996 32.996z" />
<glyph unicode="&#xf025;" glyph-name="file" d="M955.164 611.271v67.129c0 58.027-46.080 122.311-106.951 122.311h-309.476l-12.516 23.893c-12.516 24.462-37.547 39.253-65.422 39.253h-329.956c-55.182 0-99.556-46.080-99.556-102.4v-627.484c0-56.32 44.942-102.4 99.556-102.4h775.964c55.182 0 99.556 46.080 99.556 102.4v385.138c0.569 33.564-21.618 68.836-51.2 92.16v0zM848.213 739.271c21.049 0 45.511-32.427 45.511-60.871v-42.667c-1.138 0-2.276 0-2.844 0h-263.964l-54.613 103.538h275.911zM945.493 133.973c0-22.756-17.067-40.96-38.116-40.96h-775.964c-21.049 0-38.116 18.204-38.116 40.96v628.053c0 22.756 17.067 40.96 38.116 40.96h329.956c4.551 0 8.533-2.276 10.809-6.827l108.658-205.369c5.12-10.24 15.929-16.498 27.307-16.498h282.738c22.187 0 54.613-32.996 54.613-55.182v-385.138z" />
<glyph unicode="&#xf026;" glyph-name="folder" d="M944.924 483.84v0h-742.4c-27.307 0-50.631-18.204-59.164-42.667v0l-64.853-199.68v551.822h309.476c0-68.267 55.182-123.449 123.449-123.449v0h309.476v-123.449h62.009v122.88c0 34.133-27.876 62.009-62.009 62.009h-308.907c-34.133 0-62.009 27.876-62.009 62.009v0c0 34.133-27.876 62.009-62.009 62.009v0h-308.907c-34.133-0.569-62.009-28.444-62.009-62.578v-742.4c0-34.133 27.876-62.009 62.009-62.009h742.4c27.307 0 50.631 18.204 59.164 42.667v0l126.293 390.827c0 34.133-27.876 61.44-62.009 62.009v0 0zM824.32 50.347h-745.244l120.604 370.916h745.813l-121.173-370.916z" />
<glyph unicode="&#xf027;" glyph-name="view" d="M512 119.751c-209.92 0-397.653 124.587-482.987 315.164-3.413 9.671-3.413 16.498 0 26.169 85.333 190.578 272.498 315.164 482.987 315.164s397.653-124.587 482.987-315.164c3.413-9.671 3.413-16.498 0-26.169-85.333-190.578-273.067-315.164-482.987-315.164zM98.418 448c75.662-160.996 236.658-262.827 413.582-262.827s338.489 101.831 413.582 262.827c-75.093 160.996-236.089 262.827-413.582 262.827s-338.489-101.831-413.582-262.827zM512 283.591c-92.16 0-164.409 72.249-164.409 164.409s72.249 164.409 164.409 164.409 164.409-72.249 164.409-164.409-72.249-164.409-164.409-164.409zM512 546.418c-55.751 0-98.418-42.667-98.418-98.418s42.667-98.418 98.418-98.418 98.418 42.667 98.418 98.418-42.667 98.418-98.418 98.418z" />
<glyph unicode="&#xf028;" glyph-name="om-manage" d="M665.6 771.2h-480c-16 0-28.8-12.8-28.8-32s12.8-32 28.8-32h480c16 0 28.8 12.8 28.8 32s-12.8 32-28.8 32zM697.6 604.8c0 16-12.8 32-28.8 32h-480c-16 0-28.8-12.8-28.8-32s12.8-32 28.8-32h480c12.8 0 28.8 12.8 28.8 32 0 0 0 0 0 0zM188.8 499.2c-19.2 0-32-12.8-32-32 0-16 12.8-32 32-32h160c19.2 0 32 12.8 32 32 0 16-12.8 32-32 32h-160zM435.2 16h-300.8c-19.2 0-35.2 16-35.2 35.2v784c0 19.2 16 35.2 35.2 35.2h611.2c19.2 0 35.2-16 35.2-35.2v-217.6c0-19.2 16-35.2 35.2-35.2v0c19.2 0 35.2 16 35.2 35.2v217.6c0 60.8-48 108.8-108.8 108.8h-604.8c-60.8 0-108.8-48-108.8-108.8v-780.8c0-60.8 48-108.8 108.8-108.8h297.6c19.2 0 35.2 16 35.2 35.2v0c0 19.2-16 35.2-35.2 35.2zM1001.6 19.2v0l-150.4 150.4c-3.2 3.2-6.4 3.2-9.6 6.4 54.4 80 54.4 182.4 0 259.2s-153.6 112-243.2 89.6c-16-3.2-25.6-22.4-22.4-38.4 0-6.4 3.2-9.6 6.4-12.8l121.6-121.6-96-96-121.6 121.6c-12.8 12.8-32 12.8-44.8 0-3.2-3.2-6.4-9.6-6.4-12.8-19.2-67.2-3.2-140.8 38.4-195.2s108.8-89.6 179.2-89.6c44.8 0 89.6 12.8 128 41.6 3.2-3.2 3.2-6.4 6.4-9.6l150.4-150.4c16-16 41.6-12.8 57.6 3.2 19.2 9.6 19.2 35.2 6.4 54.4zM652.8 124.8c-51.2 0-102.4 22.4-134.4 60.8-35.2 38.4-51.2 89.6-44.8 140.8l137.6-134.4 156.8 163.2-134.4 134.4c54.4 6.4 108.8-12.8 147.2-51.2 54.4-51.2 70.4-131.2 41.6-198.4-28.8-70.4-96-115.2-169.6-115.2zM966.4-19.2l-156.8 156.8 9.6 9.6 156.8-156.8-9.6-9.6z" />
<glyph unicode="&#xf029;" glyph-name="home" d="M998.969 454.827l-467.058 467.058c-10.809 10.809-28.444 10.809-39.253 0l-467.627-467.058c-17.636-17.636-5.12-47.787 19.911-47.787h78.507v-413.582c0-15.36 12.516-27.876 27.876-27.876h277.049v279.893c0 46.080 37.547 83.627 83.627 83.627s83.627-37.547 83.627-83.627v-279.893h281.031c15.36 0 27.876 12.516 27.876 27.876v413.582h73.956c25.031 0 37.547 30.151 20.48 47.787zM879.502 462.791c-1.138 0-1.707 0-2.844 0h-27.876v-427.236c0-7.396-6.258-14.222-14.222-14.222h-183.751v224.142c0 76.8-62.578 139.378-139.378 139.378s-139.378-62.578-139.378-139.378v-224.142h-178.631c-7.396 0-14.222 6.258-14.222 14.222v427.804h-27.876c-1.138 0-1.707 0-2.844 0h-35.84l399.36 399.36 399.36-399.36h-31.858v-0.569z" />
<glyph unicode="&#xf02a;" glyph-name="content-manage" d="M915.2 771.2v-499.2c0-19.2-16-35.2-35.2-35.2h-240c-9.6 0-16-3.2-22.4-9.6l-80-73.6c-12.8-12.8-32-12.8-44.8 0l-70.4 64-9.6 9.6c-6.4 6.4-16 9.6-25.6 9.6h-240c-19.2 0-35.2 16-35.2 35.2v499.2zM48 803.2v-598.4c0-19.2 16-35.2 35.2-35.2h278.4c9.6 0 16-3.2 22.4-9.6l108.8-102.4c12.8-12.8 35.2-12.8 48 0l108.8 102.4c6.4 6.4 16 9.6 22.4 9.6h278.4c19.2 0 35.2 16 35.2 35.2v598.4c0 19.2-16 35.2-35.2 35.2h-867.2c-19.2 0-35.2-16-35.2-35.2zM262.4 636.8h508.8c6.4 0 12.8-6.4 12.8-12.8v-41.6c0-6.4-6.4-12.8-12.8-12.8h-508.8c-6.4 0-12.8 6.4-12.8 12.8v41.6c0 6.4 6.4 12.8 12.8 12.8zM262.4 502.4h508.8c6.4 0 12.8-6.4 12.8-12.8v-41.6c0-6.4-6.4-12.8-12.8-12.8h-508.8c-6.4 0-12.8 6.4-12.8 12.8v41.6c0 9.6 6.4 12.8 12.8 12.8z" />
<glyph unicode="&#xf02b;" glyph-name="raido" d="M512 876.942c-236.658 0-428.942-192.284-428.942-428.942s192.284-428.942 428.942-428.942 428.942 192.284 428.942 428.942-192.284 428.942-428.942 428.942zM512-44.658c-104.107 0-200.249 32.427-279.893 87.609-91.022 63.147-159.858 155.876-192.284 263.964-13.084 44.942-20.48 92.16-20.48 141.084 0 83.058 20.48 160.996 56.889 229.831 36.409 68.267 88.747 127.431 151.324 172.373 80.213 56.889 178.631 90.453 284.444 90.453 87.609 0 170.098-22.756 241.778-63.716 90.453-51.2 163.271-130.276 206.507-225.28 28.444-62.009 44.373-131.413 44.373-203.662 0-96.711-27.876-187.164-76.8-263.964-44.942-71.111-108.089-129.707-182.044-169.529-69.973-37.547-149.049-59.164-233.813-59.164v0z" />
<glyph unicode="&#xf02c;" glyph-name="radio-check" d="M745.813 448c0-129.138-104.676-233.813-233.813-233.813s-233.813 104.676-233.813 233.813c0 129.138 104.676 233.813 233.813 233.813s233.813-104.676 233.813-233.813zM512 876.942c-236.658 0-428.942-192.284-428.942-428.942s192.284-428.942 428.942-428.942 428.942 192.284 428.942 428.942-192.284 428.942-428.942 428.942zM512-44.658c-104.107 0-200.249 32.427-279.893 87.609-91.022 63.147-159.858 155.876-192.284 263.964-13.084 44.942-20.48 92.16-20.48 141.084 0 83.058 20.48 160.996 56.889 229.831 36.409 68.267 88.747 127.431 151.324 172.373 80.213 56.889 178.631 90.453 284.444 90.453 87.609 0 170.098-22.756 241.778-63.716 90.453-51.2 163.271-130.276 206.507-225.28 28.444-62.009 44.373-131.413 44.373-203.662 0-96.711-27.876-187.164-76.8-263.964-44.942-71.111-108.089-129.707-182.044-169.529-69.973-37.547-149.049-59.164-233.813-59.164v0z" />
<glyph unicode="&#xf02d;" glyph-name="checkbox" d="M946.631 882.631v-869.831h-869.262v869.831h869.262zM946.631 954.88h-869.262c-35.84 0-72.249-36.409-72.249-72.249v-869.831c0-36.409 36.409-72.249 72.249-72.249h869.831c36.409 0 72.249 36.409 72.249 72.249v869.831c-0.569 35.84-36.978 72.249-72.818 72.249z" />
<glyph unicode="&#xf02e;" glyph-name="load" d="M512 174.933c-8.738 0-17.476 3.345-24.166 9.967l-341.333 341.333c-9.762 9.83-12.698 24.439-7.373 37.205 5.257 12.766 17.749 21.094 31.539 21.094h170.667v307.2c0 18.842 15.292 34.133 34.133 34.133h273.067c18.842 0 34.133-15.292 34.133-34.133v-307.2h170.667c13.79 0 26.283-8.329 31.539-21.094s2.321-27.443-7.373-37.205l-341.333-341.333c-6.69-6.622-15.428-9.967-24.166-9.967zM253.065 516.267l258.935-258.935 258.935 258.935h-122.402c-18.842 0-34.133 15.292-34.133 34.133v307.2h-204.8v-307.2c0-18.842-15.292-34.133-34.133-34.133h-122.402zM989.867-29.867h-955.733c-18.842 0-34.133 15.292-34.133 34.133s15.292 34.133 34.133 34.133h955.733c18.842 0 34.133-15.292 34.133-34.133s-15.292-34.133-34.133-34.133z" />
<glyph unicode="&#xf02f;" glyph-name="list" d="M951.182 692.053h-634.311c-26.738 0-48.924 21.618-48.924 48.924s22.187 48.356 48.924 48.356v0h634.311c26.738 0 48.924-21.618 48.924-48.924s-22.187-48.356-48.924-48.356zM512 399.076h-195.129c-26.738 0-48.924 21.618-48.924 48.924 0 26.738 21.618 48.924 48.924 48.924h195.129c26.738 0 48.924-21.618 48.924-48.924 0-26.738-22.187-48.924-48.924-48.924zM951.182 106.667h-634.311c-26.738 0-48.924 21.618-48.924 48.924 0 26.738 21.618 48.924 48.924 48.924h634.311c26.738 0 48.924-21.618 48.924-48.924s-22.187-48.924-48.924-48.924v0zM121.742 692.053h-48.924c-26.738 0-48.924 21.618-48.924 48.924s22.187 48.356 48.924 48.356h48.924c26.738 0 48.924-21.618 48.924-48.924s-22.187-48.356-48.924-48.356zM121.742 399.076h-48.924c-26.738 0-48.924 21.618-48.924 48.924 0 26.738 21.618 48.924 48.924 48.924 0 0 0 0 0 0h48.924c26.738 0 48.924-21.618 48.924-48.924 0-26.738-22.187-48.924-48.924-48.924zM121.742 106.667h-48.924c-26.738 0-48.924 21.618-48.924 48.924s21.618 48.924 48.924 48.924c0 0 0 0 0 0h48.924c26.738 0 48.924-21.618 48.924-48.924s-22.187-48.924-48.924-48.924z" />
<glyph unicode="&#xf030;" glyph-name="send-line" d="M937.6 822.4v0c-19.2 19.2-48 22.4-76.8 12.8l-752-284.8c-28.8-9.6-44.8-35.2-48-64 0-28.8 12.8-57.6 41.6-70.4l118.4-57.6c6.4-3.2 9.6-6.4 12.8-12.8l80-195.2c9.6-22.4 28.8-38.4 54.4-44.8s48 3.2 67.2 19.2l44.8 44.8c9.6 9.6 19.2 9.6 28.8 3.2l188.8-105.6c9.6-6.4 25.6-9.6 35.2-9.6s19.2 3.2 28.8 6.4c22.4 9.6 38.4 28.8 41.6 51.2l156.8 633.6c6.4 25.6 0 54.4-22.4 73.6zM880 736v0l-144-585.6c-3.2-6.4-6.4-12.8-12.8-16s-12.8-3.2-19.2 0l-172.8 99.2c-9.6 6.4-22.4 9.6-32 9.6-19.2 0-35.2-6.4-48-19.2l-41.6-41.6c-3.2-3.2-9.6-6.4-16-6.4l60.8 169.6c0 3.2 0 3.2 3.2 3.2l265.6 272c9.6 9.6-3.2 25.6-12.8 19.2l-432-246.4c-3.2 3.2-9.6 6.4-16 9.6l-108.8 54.4c-12.8 6.4-12.8 19.2-12.8 22.4s3.2 16 16 19.2l694.4 262.4c12.8 6.4 19.2 0 22.4-3.2s9.6-9.6 6.4-22.4z" />
<glyph unicode="&#xf031;" glyph-name="more-vertical-o" d="M649.671 77.084c0-72.818-60.302-133.12-133.12-133.12s-133.12 60.302-133.12 133.12 60.302 133.12 133.12 133.12c72.818 0 133.12-60.302 133.12-133.12v0zM437.476 77.084c0-44.373 34.702-79.076 79.076-79.076s79.076 34.702 79.076 79.076-34.702 79.076-79.076 79.076-79.076-34.702-79.076-79.076v0zM649.671 454.258c0-72.818-60.302-133.12-133.12-133.12s-133.12 60.302-133.12 133.12 60.302 133.12 133.12 133.12c72.818 0 133.12-60.302 133.12-133.12v0zM437.476 454.258c0-44.373 34.702-79.076 79.076-79.076s79.076 34.702 79.076 79.076-34.702 79.076-79.076 79.076-79.076-34.702-79.076-79.076v0zM649.671 818.916c0-72.818-60.302-133.12-133.12-133.12s-133.12 60.302-133.12 133.12 60.302 133.689 133.12 133.689c72.818 0 133.12-60.302 133.12-133.689v0zM437.476 818.916c0-44.373 34.702-79.076 79.076-79.076s79.076 34.702 79.076 79.076-34.702 79.076-79.076 79.076-79.076-34.133-79.076-79.076v0z" />
<glyph unicode="&#xf032;" glyph-name="password" d="M470.471 264.818v-94.436c0-20.48 16.498-36.978 36.978-36.978s36.978 16.498 36.978 36.978v94.436c42.667 20.48 61.44 71.111 40.96 114.347-14.222 30.151-44.942 49.493-77.938 49.493-47.218 0-85.902-38.684-85.902-85.902 0-33.564 18.773-63.716 48.924-77.938zM888.036 608.996h-585.387c-1.138 7.964-2.276 15.929-2.276 24.462 0 116.053 94.436 210.489 210.489 210.489v0c64.853 0 121.742-29.582 160.427-75.662l0.569 0.569c9.102-11.378 22.187-19.342 38.116-19.342 27.307 0 49.493 22.187 49.493 49.493 0 10.24-3.982 20.48-10.24 29.013h0.569c-0.569 1.138-1.138 1.707-1.707 2.276-1.707 1.707-2.844 3.413-4.551 5.12-57.458 65.422-139.378 107.52-232.676 107.52-170.667 0-309.476-138.809-309.476-309.476 0-8.533 1.138-16.498 1.707-24.462h-76.8c-39.253 0-70.542-31.858-70.542-70.542v-514.276c0-39.253 31.858-70.542 70.542-70.542h762.311c39.253 0 70.542 31.858 70.542 70.542v514.276c0 38.684-31.858 70.542-71.111 70.542zM860.16 51.484h-705.991v457.387h705.991v-457.387z" />
<glyph unicode="&#xf033;" glyph-name="refresh" d="M511.431 15.076c-229.831 0-416.427 187.164-416.427 416.427 0 9.102 0.569 17.636 1.138 26.738l73.387-4.551c-0.569-7.396-0.569-14.791-0.569-22.187 0-189.44 154.169-343.609 343.609-343.609 88.747 0 172.373 33.564 236.089 94.436l50.062-53.476c-78.507-73.956-179.769-113.778-287.289-113.778zM928.427 431.502h-73.387c0 11.947-0.569 23.893-2.276 35.84-18.204 175.218-164.978 307.2-341.902 307.2-68.836 0-134.827-20.48-192.284-58.596l-39.822 60.871c68.267 46.649 149.049 71.111 232.676 71.111 213.902 0 392.533-160.427 414.72-373.191 1.707-13.653 2.276-28.444 2.276-43.236zM131.413 657.92l-114.347-205.369c-3.413-5.12 1.138-11.947 6.827-11.947h228.693c6.258 0 9.671 6.258 6.827 11.947l-114.347 205.369c-2.844 5.689-10.809 5.689-13.653 0zM877.796 264.249l-114.916 205.369c-3.413 5.12 1.138 11.947 6.827 11.947h228.693c6.258 0 9.671-6.258 6.827-11.947l-114.347-205.369c-1.707-5.689-9.671-5.689-13.084 0v0zM264.533 748.373c0-20.48 16.498-36.409 36.409-36.409 20.48 0 36.409 16.498 36.409 36.409 0 0 0 0 0 0 0 20.48-16.498 36.409-36.409 36.409s-36.409-16.498-36.409-36.409c0 0 0 0 0 0zM733.298 152.747c0-20.48 16.498-36.409 36.409-36.409s36.409 16.498 36.409 36.409c0 0 0 0 0 0 0 20.48-16.498 36.409-36.409 36.409-20.48 0-36.409-16.498-36.409-36.409 0 0 0 0 0 0z" />
<glyph unicode="&#xf034;" glyph-name="modify" d="M663.246 822.389l42.992 42.992 131.238-131.238-42.992-42.992-131.238 131.238zM915.2 825.6l-118.4 118.4c-22.4 22.4-54.4 22.4-76.8 3.2v0l-579.2-576c-9.6-9.6-22.4-28.8-25.6-44.8l-48-188.8c-3.2-32 12.8-51.2 41.6-41.6l185.6 51.2c16 3.2 48 12.8 60.8 22.4l576 579.2c22.4 19.2 6.4 54.4-16 76.8zM310.4 230.4c-3.2-3.2-16-9.6-19.2-12.8l-137.6-38.4 38.4 140.8c0 3.2 6.4 16 9.6 19.2 0 0 12.8 12.8 12.8 12.8l108.8-108.8-12.8-12.8zM380.8 291.2l-108.8 108.8c86.4 86.4 476.8 483.2 476.8 483.2l108.8-108.8-476.8-483.2zM54.4-25.6c0 19.2 12.8 35.2 28.8 35.2h857.6c16 0 28.8-16 28.8-35.2s-12.8-35.2-28.8-35.2h-857.6c-16-3.2-28.8 16-28.8 35.2 0 0 0 0 0 0z" />
<glyph unicode="&#xf035;" glyph-name="star-hollow" d="M164.978 86.187l35.271 199.68c2.844 15.36-2.276 31.289-14.222 42.098l-148.48 141.653c-26.738 25.031-35.84 62.578-24.462 96.711 11.378 34.702 41.529 59.164 77.938 64.284l205.369 29.013c15.929 2.276 29.582 11.947 36.978 26.169l91.591 181.476c16.498 32.996 50.062 52.907 87.040 52.907s70.542-19.911 87.040-52.907l91.591-181.476c7.396-14.222 21.049-23.893 36.978-26.169l205.369-29.013c36.978-5.12 66.56-29.582 77.938-64.284s2.276-71.68-24.462-96.711l-148.48-141.084c-11.378-10.809-16.498-26.738-14.222-42.098l35.271-199.68c6.258-35.84-8.533-71.111-38.684-92.729-30.151-21.049-68.836-23.893-101.831-7.396l-183.751 94.436c-14.222 7.396-31.289 7.396-45.511 0l-183.751-94.436c-14.222-7.396-29.582-10.809-44.942-10.809-19.911 0-39.822 6.258-56.889 18.204-30.151 21.049-44.942 56.889-38.684 92.16zM275.911 51.484c6.827 0 14.222 1.707 21.049 5.12l172.942 88.178c26.738 13.653 58.596 13.653 85.902 0l172.942-88.747c15.36-7.964 32.996-6.258 47.218 3.413 13.653 9.671 19.911 24.462 17.067 40.391l-32.996 187.733c-5.12 30.151 4.551 60.871 27.307 82.489l139.378 132.551c11.947 11.378 15.36 26.738 10.809 41.529-5.12 15.36-18.204 26.169-35.271 28.444l-192.853 27.307c-30.151 4.551-56.889 22.756-69.973 50.062l-87.609 170.667c-7.396 14.222-22.187 23.324-39.822 23.324s-31.858-9.102-39.822-23.324l-85.902-170.667c-13.653-27.307-40.391-45.511-69.973-50.062l-192.853-27.307c-17.067-2.276-30.151-13.653-35.271-28.444-4.551-14.791-1.138-30.72 10.809-41.529l139.378-132.551c22.187-21.618 32.427-51.769 27.307-82.489l-32.996-187.733c-2.844-15.36 3.982-30.72 17.067-40.391 7.964-5.12 17.067-7.964 26.169-7.964z" />
<glyph unicode="&#xf036;" glyph-name="post" d="M888.604 788.764h-762.311c-33.564 0-60.871-27.307-60.871-60.871v-560.356c0-33.564 27.307-60.871 60.871-60.871h357.262c13.084 0 23.324 10.24 23.324 23.324s-10.24 23.324-23.324 23.324h-357.262c-7.964 0-14.222 6.258-14.222 14.222v560.356c0 7.964 6.258 14.222 14.222 14.222h761.742c7.964 0 14.222-6.258 14.222-14.222v-551.822c0-12.516-10.24-22.187-22.187-22.187h-118.898c-13.084 0-23.324-10.24-23.324-23.324s10.24-23.324 23.324-23.324h118.898c38.116 0 68.836 30.72 68.836 68.836v551.822c0 33.564-27.307 60.871-60.302 60.871zM461.938 565.191c0 63.147-51.769 114.916-114.916 114.916s-114.916-51.769-114.916-114.916 51.2-114.916 114.916-114.916 114.916 51.2 114.916 114.916zM278.756 565.191c0 37.547 30.72 68.267 68.267 68.267s68.267-30.72 68.267-68.267-30.72-68.267-68.267-68.267-68.267 30.72-68.267 68.267zM347.022 422.969c-101.262 0-183.751-82.489-183.751-183.751 0-13.084 10.24-23.324 23.324-23.324s23.324 10.24 23.324 23.324c0 75.662 61.44 137.102 137.102 137.102s137.102-61.44 137.102-137.102c0-13.084 10.24-23.324 23.324-23.324s23.324 10.24 23.324 23.324c0 101.262-82.489 183.751-183.751 183.751zM629.76 556.658h121.173c13.084 0 23.324 10.24 23.324 23.324s-10.24 23.324-23.324 23.324h-121.173c-13.084 0-23.324-10.24-23.324-23.324 0-12.516 10.24-23.324 23.324-23.324zM606.436 408.178c0-12.516 10.24-23.324 23.324-23.324h205.369c13.084 0 23.324 10.24 23.324 23.324s-10.24 23.324-23.324 23.324h-205.369c-13.084 0-23.324-10.24-23.324-23.324zM858.453 305.778c0 13.084-10.24 23.324-23.324 23.324h-205.369c-13.084 0-23.324-10.24-23.324-23.324 0-12.516 10.24-23.324 23.324-23.324h205.369c13.084 0 23.324 10.24 23.324 23.324z" />
<glyph unicode="&#xf037;" glyph-name="fa-space-mana" d="M515.413 960l-476.729-219.591v-584.818l476.16-219.591 474.453 219.591v584.818l-473.884 219.591zM477.298 36.124l-365.796 164.978v466.489l365.796-146.204v-485.262zM164.978 723.342l349.867 155.307 343.040-155.876-341.902-137.671-351.004 138.24zM915.911 197.12l-365.796-163.84v488.107l365.796 146.204v-470.471z" />
<glyph unicode="&#xf038;" glyph-name="video" d="M506.88-8.818c-254.862 0-461.369 206.507-461.369 461.369s206.507 460.8 461.369 460.8 461.369-206.507 461.369-461.369-207.076-460.8-461.369-460.8zM509.156 74.809c207.076 0 374.898 167.822 374.898 374.898s-167.822 374.898-374.898 374.898-374.329-167.822-374.329-374.898 167.822-374.898 374.329-374.898zM434.062 628.907l259.982-151.893c13.653-7.964 18.204-25.6 10.24-39.253-2.276-3.982-6.258-7.964-10.24-10.24l-259.413-150.756c-13.653-7.964-31.289-3.413-39.253 10.24-2.276 4.551-3.982 9.671-3.982 14.791v302.649c0 15.929 13.084 29.013 29.013 29.013 3.982-0.569 9.102-1.707 13.653-4.551z" />
<glyph unicode="&#xf039;" glyph-name="draft-box" d="M925.013 361.529c48.356 0 87.040-39.253 87.040-87.040v-239.502c0-48.356-39.253-87.040-87.040-87.040h-833.991c-48.356 0-87.040 39.253-87.040 87.040v239.502c0 48.356 39.253 87.040 87.040 87.040h42.098v478.436c0 64.284 52.338 116.622 116.622 116.622h517.12c64.284 0 116.622-52.338 116.622-116.622v-478.436h41.529zM934.684 34.987v239.502c0 5.12-3.982 9.671-9.671 9.671 0 0 0 0 0 0h-209.92l-39.822-97.28c-4.551-32.996-32.996-57.458-65.991-57.458h-202.524c-33.564 0-61.44 24.462-65.991 57.458l-39.822 97.849h-209.92c-5.12 0-9.671-3.982-9.671-9.671 0 0 0 0 0 0v-239.502c0-5.12 4.551-9.671 9.671-9.671 0 0 0 0 0 0h833.991c5.12-0.569 9.671 3.982 9.671 9.102 0 0 0 0 0 0zM210.489 839.964v-478.436h116.622c15.929 0 30.151-9.671 35.84-24.462l51.769-127.431c0.569-1.138 1.138-2.276 1.138-3.982h184.32c0.569 1.138 0.569 2.276 1.138 3.982l51.769 127.431c5.689 14.791 19.911 24.462 35.84 24.462h116.622v478.436c0 21.618-17.636 38.684-38.684 38.684h-517.689c-21.049 0-38.684-17.067-38.684-38.684v0zM352.711 672.142c-21.618 0-38.684 17.636-38.684 38.684 0 21.618 17.636 38.684 38.684 38.684h310.044c21.618 0 38.684-17.636 38.684-38.684 0-21.618-17.636-38.684-38.684-38.684 0 0-310.044 0-310.044 0zM585.387 490.667h-232.676c-21.618 0-38.684 17.636-38.684 38.684 0 21.618 17.636 38.684 38.684 38.684h232.676c21.618 0 38.684-17.636 38.684-38.684s-17.067-38.684-38.684-38.684z" />
<glyph unicode="&#xf03a;" glyph-name="message" d="M621.227 824.604v-754.916l-230.4 217.316h-252.018c-21.049 0-37.547 17.067-37.547 37.547v245.76c0 21.049 17.067 37.547 37.547 37.547h252.587l22.187 19.911 207.644 196.836zM633.742 917.333c-13.084 0-27.307-4.551-39.253-13.653l-233.244-219.022h-223.004c-62.578 0-113.209-51.2-113.209-113.209v-245.76c0-62.578 51.2-113.209 113.209-113.209h223.004l233.813-219.591c11.947-9.671 25.6-13.653 39.253-13.653 32.996 0 63.147 25.6 63.147 63.147v811.804c-0.569 38.116-30.72 63.147-63.716 63.147v0zM998.969 485.547h-240.071v-75.662h240.071v75.662zM812.373 296.107l-53.476-53.476 146.204-146.773 53.476 53.476-146.204 146.773zM905.102 799.573l-146.204-146.773 53.476-53.476 146.204 146.773-53.476 53.476z" />
<glyph unicode="&#xf03b;" glyph-name="style" d="M604.16 916.196c-34.702 43.804-88.747 43.236-122.88-1.138-29.013-37.547-42.667-81.92-31.289-126.293 23.893-96.142 54.613-191.147 82.489-286.151 6.827 0.569 13.084 0.569 19.911 1.138 27.876 87.040 58.596 173.511 82.489 261.689 13.653 52.338 5.689 105.813-30.72 150.756zM611.556 767.147c-15.36-57.458-34.702-114.916-52.907-170.098-5.689-16.498-10.809-33.564-16.498-50.631-5.689 18.204-10.809 36.409-16.498 54.613-18.773 61.44-37.547 125.156-53.476 187.733-8.533 33.564 1.138 69.973 26.169 102.969 12.516 15.929 27.876 24.462 44.373 24.462 15.929 0 31.289-8.533 43.804-23.893 29.013-35.84 37.547-79.076 25.031-125.156zM278.756 867.84c-55.182 10.809-96.142-23.893-93.867-80.213 1.707-47.218 19.911-89.884 56.889-116.622 80.213-58.596 164.978-111.502 247.467-166.684 5.12 4.551 9.671 9.102 14.791 13.653-34.702 84.764-66.56 170.667-105.244 253.156-23.324 49.493-63.716 85.333-120.036 96.711zM380.018 758.044c25.031-53.476 47.218-109.796 68.836-164.409 6.258-16.498 13.084-32.996 19.911-49.493-15.929 10.809-31.858 21.049-47.787 31.289-53.476 35.271-108.658 71.68-161.564 109.796-27.876 20.48-44.373 54.044-46.080 95.573-0.569 19.911 5.689 36.978 18.204 47.218 11.947 10.24 29.582 13.653 48.924 9.671 44.942-8.533 79.644-36.409 99.556-79.644zM60.302 620.942c-49.493-26.738-58.027-80.213-20.48-121.742 31.858-34.702 73.387-56.32 118.898-52.907 98.987 7.396 197.404 21.049 296.391 31.858 0.569 6.827 1.707 13.084 2.276 19.911-80.782 42.098-160.427 87.609-243.484 126.293-49.493 23.324-103.538 23.893-153.6-3.413zM208.213 602.169c53.476-25.031 106.951-54.044 158.72-81.351 15.36-8.533 31.289-16.498 46.649-25.031-18.773-2.276-38.116-4.551-56.32-6.827-63.716-7.396-129.707-15.36-194.56-19.911-34.702-2.276-68.836 13.084-96.711 43.804-13.653 14.791-19.342 31.858-16.498 47.787s13.653 29.582 31.289 39.253c39.822 21.618 84.196 22.756 127.431 2.276zM51.2 291.556c-20.48-52.338 7.396-98.418 62.578-106.382 46.649-6.258 92.16 3.982 125.156 35.84 71.111 68.836 138.24 142.791 206.507 214.471-3.413 5.689-7.396 11.378-10.809 16.498-89.316-19.342-179.2-36.409-267.947-59.733-52.338-13.084-94.436-47.218-115.484-100.693zM176.924 372.338c57.458 15.36 116.622 27.307 174.080 39.253 17.067 3.413 34.702 7.396 52.338 10.809-13.084-13.653-26.169-27.876-39.253-41.529-43.804-46.649-89.316-95.004-135.964-140.516-25.031-23.893-61.44-34.133-102.4-29.013-19.911 2.844-35.271 11.947-43.804 26.169-7.964 13.653-8.533 31.289-1.138 50.062 16.498 43.236 49.493 72.818 96.142 84.764zM256.569 33.849c18.204-53.476 68.836-71.111 116.053-40.96 39.822 25.031 68.267 62.578 72.818 108.089 10.24 98.987 13.653 197.973 20.48 296.96-6.258 1.707-12.516 3.982-18.773 5.689-55.751-72.249-114.347-142.791-166.684-217.884-31.858-44.373-42.667-97.849-23.893-151.893zM300.373 176.071c34.133 48.356 71.68 96.142 108.089 142.222 10.809 13.653 21.618 27.876 32.996 42.098-1.138-19.342-2.276-38.116-3.413-56.889-3.413-64.284-7.396-130.276-14.222-195.129-3.413-34.702-25.031-65.422-59.733-87.609-17.067-10.809-34.702-13.653-50.062-7.964-14.791 5.689-26.738 18.773-32.996 37.547-14.791 43.236-7.964 86.471 19.342 125.724zM579.129-32.142c47.787-29.013 98.418-10.24 115.484 43.236 14.222 44.942 11.947 91.591-13.653 129.138-55.751 81.92-116.622 160.427-175.787 240.64-6.258-2.844-11.947-5.12-18.204-7.964 3.413-91.591 4.551-183.182 11.947-274.204 5.12-53.476 31.289-101.262 80.213-130.844zM521.102 105.529c-5.12 59.164-6.827 119.467-8.533 178.062-0.569 17.636-1.138 35.271-1.707 52.907 11.378-15.36 22.756-30.72 34.133-45.511 38.684-51.2 77.938-104.676 114.347-158.151 19.342-28.444 23.324-65.991 10.809-105.813-6.258-19.342-18.204-32.996-32.996-38.684s-32.427-2.844-49.493 7.396c-39.253 23.893-62.009 62.009-66.56 109.796zM868.693 124.871c55.751 8.533 81.92 55.751 60.871 107.52-17.636 43.804-49.493 77.938-93.298 90.453-95.573 27.307-192.853 48.356-288.996 71.68-2.844-5.689-6.258-11.947-9.102-17.636 61.44-67.698 121.173-137.102 185.458-201.956 38.116-39.253 88.178-58.596 145.067-50.062zM736.142 193.138c-41.529 42.098-81.92 87.040-121.173 130.844-11.378 13.084-23.324 26.169-35.271 39.822 18.773-4.551 36.978-9.102 55.182-13.084 62.578-14.791 126.862-29.582 189.44-47.787 33.564-9.671 60.302-35.84 76.231-73.956 7.396-18.773 7.396-36.978-0.569-50.631s-23.324-23.324-42.667-26.169c-45.511-7.396-87.609 6.827-121.173 40.96zM989.867 431.502c36.978 42.098 27.307 95.004-22.756 121.173-41.529 22.187-88.178 27.876-129.707 9.102-90.453-40.391-178.631-87.040-267.378-130.844 1.707-6.258 2.844-13.084 4.551-19.342 90.453-12.516 180.907-27.307 271.929-35.84 54.044-5.12 105.244 12.516 143.36 55.751zM844.231 398.507c-59.164 5.12-118.898 14.222-176.924 22.187-17.067 2.276-34.702 5.12-52.907 7.396 17.067 8.533 34.133 17.067 50.631 25.6 57.458 29.013 116.622 58.596 175.787 85.333 31.858 14.222 69.404 11.378 105.813-7.964 17.636-9.102 29.013-23.324 31.858-39.253s-2.844-32.427-15.929-47.218c-29.582-34.702-70.542-50.631-118.329-46.080zM885.191 743.822c1.138 56.32-40.391 90.453-95.004 78.507-46.080-10.24-85.333-35.271-105.244-76.231-43.236-89.316-80.782-181.476-120.604-272.498 5.12-3.982 10.809-7.964 15.929-11.947 77.369 48.924 156.444 95.573 230.969 147.342 44.942 31.289 72.818 77.369 73.956 134.827zM795.307 624.924c-48.356-34.133-100.124-65.991-149.618-96.711-14.791-9.102-30.151-18.773-44.942-27.876 7.396 17.636 15.36 35.271 22.756 52.338 25.031 59.164 51.2 120.036 79.644 178.631 15.36 31.289 45.511 52.907 86.471 62.009 19.911 4.551 37.547 1.138 50.062-9.671 11.947-10.24 18.773-26.738 18.204-46.649-2.276-46.080-23.324-84.764-62.578-112.071z" />
<glyph unicode="&#xf03c;" glyph-name="plus-o" d="M774.827 420.124h-524.516c-15.36 0-27.876 12.516-27.876 27.876v0c0 15.36 12.516 27.876 27.876 27.876h524.516c15.36 0 27.876-12.516 27.876-27.876v0c0-15.36-12.516-27.876-27.876-27.876zM540.444 710.258v-524.516c0-15.36-12.516-27.876-27.876-27.876v0c-15.36 0-27.876 12.516-27.876 27.876v524.516c0 15.36 12.516 27.876 27.876 27.876v0c15.36 0 27.876-12.516 27.876-27.876zM514.276 898.56c249.742 0 452.836-203.093 452.836-452.836s-203.093-452.836-452.836-452.836-452.836 203.093-452.836 452.836 203.093 452.836 452.836 452.836zM514.276 955.449c-281.6 0-509.724-228.124-509.724-509.724s228.124-509.724 509.724-509.724 509.724 228.124 509.724 509.724-228.124 509.724-509.724 509.724v0z" />
<glyph unicode="&#xf03d;" glyph-name="minus-o" d="M774.827 420.124h-524.516c-15.36 0-27.876 12.516-27.876 27.876v0c0 15.36 12.516 27.876 27.876 27.876h524.516c15.36 0 27.876-12.516 27.876-27.876v0c0-15.36-12.516-27.876-27.876-27.876zM514.276 898.56c249.742 0 452.836-203.093 452.836-452.836s-203.093-452.836-452.836-452.836-452.836 203.093-452.836 452.836 203.093 452.836 452.836 452.836zM514.276 955.449c-281.6 0-509.724-228.124-509.724-509.724s228.124-509.724 509.724-509.724 509.724 228.124 509.724 509.724-228.124 509.724-509.724 509.724v0z" />
<glyph unicode="&#xf03e;" glyph-name="unread-mail" d="M423.253 483.271c25.031-23.324 57.458-35.271 90.453-35.271 32.427 0 65.422 11.378 92.16 34.702l0.569 0.569 372.622 331.093c7.396 6.258 11.947 15.929 11.947 26.738s-3.982 19.911-11.378 26.738c-25.031 23.324-59.164 36.978-93.867 36.978h-741.831c-36.409 0-67.698-13.084-93.867-36.978-7.396-7.396-11.378-17.067-11.378-26.738 0-10.24 5.12-19.911 11.947-26.738l372.622-331.093zM143.929 832h745.813l-331.662-294.684c-25.6-21.618-62.009-22.756-84.764-0.569l-1.138 0.569-331.662 294.684c0 0 3.413 0 3.413 0zM994.418 743.253c-13.084 5.689-28.444 3.413-38.684-5.689l-398.791-356.124c-22.756-21.049-61.44-21.049-84.196 0l-0.569 0.569-405.049 355.556c-10.24 9.671-25.6 11.378-38.684 5.689s-21.049-18.773-21.049-32.996v-590.507c0-71.111 59.733-128.569 134.258-128.569h741.262c73.387 0 134.258 57.458 134.258 128.569v590.507c-1.138 14.222-9.102 27.307-22.756 32.996v0zM943.218 119.751c0-31.289-26.738-55.751-61.44-55.751h-741.262c-34.702 0-61.44 24.462-61.44 55.751v510.293l344.178-302.080c50.062-46.080 133.12-46.080 182.613 0l336.782 300.373v-509.156h0.569z" />
<glyph unicode="&#xf03f;" glyph-name="tips" d="M512 892.871c245.191 0 444.871-199.68 444.871-444.871s-199.68-444.871-444.871-444.871-444.871 199.68-444.871 444.871 199.68 444.871 444.871 444.871zM512 937.244c-270.222 0-489.244-219.022-489.244-489.244s219.022-489.244 489.244-489.244 489.244 219.022 489.244 489.244-219.022 489.244-489.244 489.244v0zM514.844 342.756c-18.204 0-33.564 14.791-33.564 33.564v288.996c0 18.204 14.791 33.564 33.564 33.564s33.564-14.791 33.564-33.564v-288.996c-0.569-18.204-15.36-33.564-33.564-33.564zM522.809 147.627c-14.791 0-29.013 6.258-39.253 16.498s-15.929 24.462-15.929 39.253c0 14.791 6.258 29.013 15.929 39.253 20.48 20.48 58.027 20.48 78.507 0 10.24-10.24 16.498-24.462 16.498-39.253s-6.258-29.013-16.498-39.253c-9.671-10.24-24.462-16.498-39.253-16.498z" />
<glyph unicode="&#xf040;" glyph-name="history" d="M512 914.489c-257.707 0-467.058-209.351-467.058-467.058s209.351-467.058 467.058-467.058c257.707 0 467.058 208.782 467.058 467.058 0 257.707-209.351 467.058-467.058 467.058zM512 37.831c-225.28 0-408.462 184.32-408.462 409.6s183.182 408.462 408.462 408.462c225.28 0 408.462-183.182 408.462-408.462s-183.182-409.6-408.462-409.6zM541.013 459.378v279.893c0 15.929-13.084 29.013-29.013 29.013s-29.013-13.084-29.013-29.013v-291.84c0-7.964 3.413-14.791 7.964-20.48 0.569-0.569 1.138-1.707 2.276-2.276l144.498-144.498c11.378-11.378 30.151-11.378 41.529 0s11.378 30.151 0 41.529l-138.24 137.671z" />
<glyph unicode="&#xf041;" glyph-name="receiving" d="M937.6 873.6h-851.2c-25.6 0-48-22.4-48-48v-758.4c0-25.6 22.4-48 48-48h854.4c25.6 0 48 22.4 48 48v761.6c-3.2 25.6-22.4 44.8-51.2 44.8zM912 92.8h-800v710.4h800v-710.4zM230.4 620.8c-9.6 6.4-28.8 22.4-48-3.2-12.8-22.4 3.2-44.8 12.8-51.2l300.8-188.8c9.6-6.4 22.4-6.4 35.2 0l300.8 188.8c9.6 6.4 28.8 25.6 16 48-3.2 9.6-16 25.6-48 9.6l-272-169.6c-9.6-6.4-22.4-6.4-32 0l-265.6 166.4z" />
<glyph unicode="&#xf042;" glyph-name="fa-class" d="M893.724 229.547h-4.551l-433.493 43.804c-59.733 1.707-108.089 54.044-108.089 118.898l-5.12 275.342c0 64.853 48.356 117.76 108.089 119.467l443.164 42.098c60.871 0 110.933-53.476 110.933-119.467v-360.676c0-65.991-49.493-119.467-110.933-119.467v0zM411.876 682.951l5.689-304.356c0-15.929 9.671-27.876 18.204-27.876h2.276l2.844-0.569 478.436-48.356c7.964 1.138 17.067 13.084 17.067 27.876v399.36c0 14.791-9.102 26.738-17.067 27.876l-489.244-46.080c-8.533 0-18.204-12.516-18.204-27.876v0zM131.413 67.982h-2.276c-60.871 0-110.933 53.476-110.933 119.467v360.676c0 65.991 49.493 119.467 110.933 119.467h2.276l440.889-42.098c59.733-1.707 108.089-54.613 108.089-119.467v-1.138l-5.12-274.204c0-64.853-48.356-117.191-108.089-118.898l-435.769-43.804zM119.467 606.151c-15.929 1.707-30.72-10.809-30.72-26.738 0 0 0-0.569 0-0.569v-409.031c0 0 0-0.569 0-0.569 0-15.929 14.791-28.444 30.72-26.738l466.489 48.356c8.533 0 18.204 12.516 18.204 29.013v0.569l5.689 311.182c0 15.929-9.671 28.444-18.204 28.444h-2.276l-469.902 46.080z" />
<glyph unicode="&#xf043;" glyph-name="unit-manage" d="M992.711 420.693l-449.422 455.111c-27.307 27.307-35.271 27.307-62.578 0l-449.422-455.111-31.289 31.289 462.507 466.489c27.307 27.307 71.68 27.307 98.987 0l462.507-466.489-31.289-31.289zM165.547 40.676c0-23.324 18.773-41.529 41.529-41.529h609.849c23.324 0 41.529 18.773 41.529 41.529v333.938h39.822v-333.938c0-46.080-37.547-83.627-83.627-83.627h-605.298c-46.080 0-83.627 37.547-83.627 83.627v333.938h39.822v-333.938z" />
<glyph unicode="&#xf044;" glyph-name="quota" d="M951.182 890.027c-5.689 2.276-11.378 3.413-17.636 2.276h-137.102c-19.911 0-35.84-15.929-35.84-35.84s15.929-35.84 35.84-35.84h52.907l-195.698-195.698-256.569 257.138c-7.396 7.396-17.636 11.378-27.876 10.809-10.24 0.569-19.911-3.413-27.307-10.24l-282.169-282.738c-13.653-14.791-13.084-38.116 2.276-51.769 14.222-13.084 35.84-13.084 50.062 0l257.138 257.138 256.569-257.138c7.396-7.396 17.636-10.809 27.876-10.809 10.24-0.569 20.48 3.413 27.876 10.809l221.298 221.867v-55.182c0-19.911 15.929-35.84 35.84-35.84s35.84 15.929 35.84 35.84v142.222c-0.569 14.222-9.671 27.876-23.324 32.996zM85.333 288.142c-19.911 0-35.84-15.929-35.84-35.84v-213.333c0-19.911 15.929-35.84 35.84-35.84s35.84 15.929 35.84 35.84v213.333c-0.569 19.911-15.929 35.84-35.84 35.84zM369.778 536.747c-19.911 0-35.84-15.929-35.84-35.84v-462.507c0-19.911 15.929-35.84 35.84-35.84s35.84 15.929 35.84 35.84v463.076c-0.569 19.342-15.929 35.271-35.84 35.271zM947.2 328.533h-2.276c-35.84 0-64.853 30.72-64.853 68.267 0 12.516 5.689 26.169 5.689 26.169 5.689 13.084 1.707 28.444-9.671 37.547l-0.569 0.569-62.009 36.409h-0.569c-11.947 5.12-26.169 2.276-35.271-7.396-7.396-8.533-31.858-30.151-51.2-30.151s-43.804 22.187-51.2 30.151c-6.258 6.258-14.791 10.24-23.324 10.24-3.982 0-7.964-0.569-11.947-2.276h-0.569l-64.284-37.547-0.569-0.569c-11.378-9.102-15.36-23.893-10.24-37.547 0 0 5.689-13.653 5.689-26.169 0-37.547-29.013-68.267-64.853-68.267h-2.276c-10.24 0-18.773-9.671-21.618-24.462 0-1.138-5.12-29.582-5.12-51.769s5.12-50.631 5.12-51.769c2.844-14.791 10.809-24.462 21.049-24.462h2.276c35.84 0 64.853-30.72 64.853-68.836 0-12.516-5.689-26.169-5.689-26.169-5.689-13.084-1.707-28.444 9.671-37.547l0.569-0.569 60.871-36.409 0.569-0.569c12.516-5.12 26.169-1.707 35.271 7.964 7.396 7.964 31.858 31.858 52.338 31.858 19.911 0 44.373-23.324 52.338-32.427 8.533-10.24 22.756-13.084 35.271-7.964h0.569l63.147 36.978 0.569 0.569c11.378 9.102 15.36 23.893 9.671 37.547 0 0-5.689 13.653-5.689 26.169 0 38.116 29.013 68.836 64.853 68.836h2.276c10.24 0 18.773 9.671 21.618 24.462 0 1.138 5.12 29.582 5.12 51.769s-5.12 50.631-5.12 51.769c-1.138 15.929-9.671 25.6-20.48 25.6zM899.982 215.324c-40.391-2.276-72.249-37.547-72.249-81.351 0-14.222 5.12-28.444 6.258-31.289l-47.787-28.444c-0.569 0-1.138 0-1.707 0.569-5.689 6.258-11.378 11.947-17.636 16.498-14.791 11.947-29.013 17.636-42.098 17.636s-27.307-6.258-42.098-17.636c-10.24-7.964-17.067-15.36-17.636-16.498-0.569 0-1.138-0.569-1.707-0.569v0l-46.080 27.307c1.138 2.844 6.258 17.067 6.258 31.289 0 43.236-31.858 79.076-72.249 81.351-2.276 11.947-3.413 24.462-3.982 36.978 0 14.222 2.844 33.564 3.982 36.978 40.391 2.276 72.249 37.547 72.249 81.351 0 14.222-5.12 28.444-6.258 31.289l48.924 28.444c1.138 0 1.707 0 1.707-0.569 1.138-1.138 7.396-8.533 17.636-15.929 14.791-10.809 28.444-16.498 40.96-16.498s26.169 5.689 40.96 16.498c9.671 7.396 16.498 14.791 17.636 15.36 0.569 0 1.138 0.569 1.707 0.569v0l47.218-27.876c-1.138-2.844-6.258-16.498-6.258-31.289 0-43.236 31.858-79.076 72.249-81.351 0.569-3.413 3.982-22.187 3.982-36.978-0.569-13.653-3.413-32.427-3.982-35.84v0zM725.333 323.982c-39.253-0.569-70.542-32.427-70.542-71.68 0 0 0 0 0 0 0-39.822 31.289-71.68 69.973-71.68s69.973 31.858 69.973 71.68c1.138 39.253-30.151 71.111-69.404 71.68 0 0 0 0 0 0z" />
<glyph unicode="&#xf045;" glyph-name="fa-moral" d="M988.16 537.884c22.756 12.516 35.84 32.996 35.84 55.751s-13.084 43.236-35.84 55.751l-420.978 236.089c-30.72 17.636-79.644 17.067-110.364 0l-420.978-236.089c-22.756-12.516-35.84-32.996-35.84-55.751s13.084-43.236 35.84-55.751l117.76-65.991c0-1.138-0.569-1.707-0.569-2.844v-314.027c0-2.276 0-4.551 0.569-6.827 7.964-106.382 184.32-162.133 358.4-162.133 175.787 0 354.418 56.889 358.969 165.547 0 1.138 0 2.276 0 3.413v314.027c0 1.138 0 1.707-0.569 2.844l117.76 65.991zM496.071 829.156c2.276 1.138 7.396 2.844 15.929 2.844 7.396 0 13.084-1.707 15.929-2.844l420.409-235.52-420.409-235.52c-2.276-1.138-7.396-2.844-15.929-2.844-7.396 0-13.084 1.707-15.929 2.844l-420.409 235.52 420.409 235.52zM814.080 148.764c0-0.569 0-1.138 0-1.707-0.569-33.564-115.484-95.004-302.080-95.004s-301.511 61.44-302.080 95.004c0 1.707 0 3.413-0.569 5.12v290.702l241.778-135.396c17.067-9.671 38.116-14.791 60.302-14.791s43.804 5.12 60.302 14.791l242.347 134.827v-293.547zM983.040 503.751c-19.342 0-34.702-18.204-34.702-41.529v-327.68c0-22.756 15.929-41.529 34.702-41.529s34.702 18.204 34.702 41.529v327.68c0.569 22.756-15.36 41.529-34.702 41.529z" />
<glyph unicode="&#xf046;" glyph-name="help" d="M512 832.1c51.9 0 102.2-10.1 149.5-30.2 45.7-19.3 86.8-47 122.1-82.3s63-76.4 82.3-122.1c20-47.3 30.2-97.6 30.2-149.5s-10.1-102.2-30.2-149.5c-19.3-45.7-47-86.8-82.3-122.1s-76.4-63-122.1-82.3c-47.3-20-97.6-30.2-149.5-30.2s-102.2 10.1-149.5 30.2c-45.7 19.3-86.8 47-122.1 82.3s-63 76.4-82.3 122.1c-20 47.3-30.2 97.6-30.2 149.5s10.1 102.2 30.2 149.5c19.3 45.7 47 86.8 82.3 122.1s76.4 63 122.1 82.3c47.3 20 97.6 30.2 149.5 30.2zM512 896.1c-247.5 0-448.1-200.6-448.1-448.1s200.6-448.1 448.1-448.1 448.1 200.6 448.1 448.1-200.6 448.1-448.1 448.1zM480 224h64v-64h-64zM476.9 273.7c-0.3 9.3-0.4 42.2-0.4 46.8 0 27.3 3.9 50.8 11.6 70.6 5.7 14.9 14.8 30 27.4 45.1 9.3 11.1 25.9 27.2 50 48.4 24 21.2 39.7 38.1 46.9 50.7s10.8 26.4 10.8 41.3c0 27-10.5 50.7-31.6 71.2-21.1 20.4-46.9 30.7-77.5 30.7-29.6 0-54.3-9.3-74.1-27.8s-32.8-47.4-39-86.8l-71.4 8.5c6.4 52.7 25.5 93.1 57.3 121.1s73.7 42 125.9 42c55.3 0 99.4-15 132.3-45.1s49.4-66.5 49.4-109.2c0-24.7-5.8-47.4-17.4-68.3s-34.2-46.2-67.9-76c-22.6-20.1-37.4-34.8-44.4-44.4-6.9-9.5-12.1-20.4-15.4-32.8-3.3-12.3-5.3-58.4-5.8-86.2h-66.7v0.2z" />
<glyph unicode="&#xf047;" glyph-name="standard" d="M512-64l-19.911 7.964c-78.507 30.72-146.204 65.422-200.249 103.538-48.356 34.133-87.609 72.249-116.053 112.64-58.027 81.92-64.284 160.427-64.284 212.196v458.524l56.889-1.707c109.796-3.982 186.596 19.911 230.969 40.391 47.218 21.618 70.542 44.942 71.68 46.080l40.96 44.373 40.391-43.804c1.707-1.707 23.893-22.756 67.129-43.804 41.529-19.911 112.071-43.804 212.764-43.804 8.533 0 15.929 0 23.324 0.569l56.889 1.707v-458.524c0-51.769-6.827-130.276-64.284-212.196-28.444-40.391-67.698-78.507-116.053-112.64-54.044-38.116-121.173-72.818-200.249-103.538l-19.911-7.964zM165.547 775.111v-403.342c0-104.676 35.84-258.276 345.884-378.311h1.138c310.044 120.036 346.453 273.067 346.453 378.311v403.342h-1.138c-7.964-0.569-15.929-0.569-25.031-0.569-88.747 0-171.804 17.636-238.933 50.631-54.044 26.738-80.213 54.044-80.213 54.044l-1.707 1.138-1.138-1.138c-1.138-1.138-27.876-29.582-85.902-57.458-65.991-31.289-146.773-47.218-234.382-47.218-7.964 0-16.498 0-24.462 0.569h-0.569zM259.413 385.991c35.271 54.044 59.164 110.364 71.68 169.529h-68.836v32.427h71.68v92.16h32.996v-92.729h64.284v-32.427h-63.716v-83.627l20.48 21.049c19.911-17.067 38.116-34.133 53.476-50.062l-25.031-26.169c-15.36 17.067-31.289 34.702-48.924 51.769v-249.742h-32.996v256c-16.498-54.044-36.409-97.849-59.733-130.844-4.551 14.222-9.671 28.444-15.36 42.667zM475.591 435.484l35.271-14.222c-25.6-57.458-51.769-109.227-77.369-153.6-9.671 5.689-21.049 11.378-34.702 16.498 25.6 40.391 51.2 91.022 76.8 151.324zM431.218 513.422h295.253v-32.996h-130.276v-197.973c0-39.253-18.204-59.164-54.613-59.164-17.067-0.569-38.116 0-63.147 0.569-1.707 11.378-3.982 24.462-6.827 39.253 21.618-2.276 41.529-3.982 59.733-3.982 18.773 0 28.444 11.947 28.444 35.271v186.027h-128.569v32.996zM452.836 652.231h251.449v-32.996h-251.449v32.996zM626.916 419.556l33.564 15.929c30.151-57.458 54.613-107.52 74.524-150.756l-38.116-16.498c-19.911 48.356-43.236 98.987-69.973 151.324z" />
<glyph unicode="&#xf048;" glyph-name="share" d="M729.053 340.337c-57.435 0-107.735-29.93-136.56-74.995l-173.8 99.38c11.265 22.005 18.142 46.545 18.142 73.040 0 16.345-3.067 31.735-7.615 46.65l180.777 103.35c29.675-32.157 71.77-52.627 119.005-52.627 89.54 0 162.265 72.672 162.265 162.267 0 89.597-72.725 162.267-162.265 162.267-89.65 0-162.27-72.67-162.27-162.267 0-16.342 3.125-31.787 7.565-46.65l-180.78-103.295c-29.672 32.157-71.77 52.575-118.95 52.575-89.65 0-162.32-72.62-162.32-162.27 0-89.645 72.67-162.265 162.267-162.265 37.022 0 70.715 12.905 98.005 33.69l-0.635-1.11 196.592-112.395c-0.74-5.765-1.745-11.475-1.745-17.665 0-89.435 72.62-162.16 162.27-162.16 89.54 0 162.265 72.725 162.265 162.16 0.057 89.705-72.668 162.32-162.213 162.32zM729.053 794.825c53.735 0 97.425-43.635 97.425-97.372 0-53.787-43.69-97.372-97.425-97.372-53.845 0-97.425 43.585-97.425 97.372 0 53.738 43.58 97.372 97.425 97.372zM274.569 340.337c-53.79 0-97.32 43.585-97.32 97.425 0 53.79 43.585 97.372 97.32 97.372 53.79 0 97.37-43.582 97.37-97.372 0-53.84-43.58-97.425-97.37-97.425zM729.053 80.647c-53.845 0-97.425 43.69-97.425 97.32 0 53.945 43.58 97.53 97.425 97.53 53.735 0 97.425-43.585 97.425-97.53 0-53.63-43.69-97.32-97.425-97.32z" />
<glyph unicode="&#xf049;" glyph-name="mutiple-select" d="M972.69 447.871c0-42.399-34.36-76.777-76.752-76.777h-767.472c-42.379 0-76.739 34.376-76.739 76.777 0 42.414 34.36 76.779 76.739 76.779h767.472c42.392 0 76.752-34.367 76.752-76.779zM895.938 575.845h-767.472c-70.641 0-127.904-57.291-127.904-127.974 0-70.67 57.262-127.961 127.904-127.961h767.472c70.65 0 127.916 57.291 127.916 127.961 0 70.683-57.268 127.974-127.916 127.974zM1023.854 63.963c0-70.674-57.266-127.963-127.916-127.963h-767.472c-70.641 0-127.904 57.291-127.904 127.963 0 70.683 57.262 127.972 127.904 127.972h767.472c70.648 0 127.916-57.289 127.916-127.972zM895.938 140.751h-767.472c-42.379 0-76.739-34.378-76.739-76.786 0-42.401 34.36-76.779 76.739-76.779h767.472c42.394 0 76.752 34.378 76.752 76.779 0 42.408-34.36 76.786-76.752 76.786zM153.481 960c-18.099 0-25.582-7.499-25.582-25.602 0-18.094 7.483-25.593 25.582-25.593h102.325c18.094 0 25.582 7.499 25.582 25.593 0 18.105-7.487 25.602-25.582 25.602h-102.325zM358.116 960c-18.095 0-25.582-7.499-25.582-25.602 0-18.094 7.487-25.593 25.582-25.593h102.323c18.095 0 25.591 7.499 25.591 25.593 0 18.105-7.498 25.602-25.591 25.602h-102.323zM562.752 960c-18.094 0-25.582-7.499-25.582-25.602 0-18.094 7.487-25.593 25.582-25.593h102.325c18.097 0 25.58 7.499 25.58 25.593 0 18.105-7.483 25.602-25.58 25.602h-102.325zM767.393 960c-18.097 0-25.582-7.499-25.582-25.602 0-18.094 7.483-25.593 25.582-25.593h102.32c18.097 0 25.582 7.499 25.582 25.593 0 18.105-7.485 25.602-25.582 25.602h-102.32zM869.713 704.054c18.097 0 25.582 7.498 25.582 25.593 0 18.103-7.485 25.591-25.582 25.591h-102.32c-18.097 0-25.582-7.488-25.582-25.591 0-18.095 7.483-25.593 25.582-25.593h102.32zM665.077 704.054c18.097 0 25.58 7.498 25.58 25.593 0 18.103-7.483 25.591-25.58 25.591h-102.325c-18.094 0-25.582-7.488-25.582-25.591 0-18.095 7.487-25.593 25.582-25.593h102.325zM460.44 704.054c18.095 0 25.591 7.498 25.591 25.593 0 18.103-7.498 25.591-25.591 25.591h-102.323c-18.095 0-25.582-7.488-25.582-25.591 0-18.095 7.487-25.593 25.582-25.593h102.323zM255.806 704.054c18.094 0 25.582 7.498 25.582 25.593 0 18.103-7.487 25.591-25.582 25.591h-102.325c-18.099 0-25.582-7.488-25.582-25.591 0-18.095 7.483-25.593 25.582-25.593h102.325zM65.064 787.989c-21.508 30.745-17.664 72.534 9.105 98.824 12.9 12.684 12.998 23.278 0.33 36.198-12.682 12.918-23.273 13.005-36.182 0.332-44.609-43.826-51.027-113.479-15.165-164.719 10.376-14.825 20.806-16.667 35.626-6.288 14.822 10.379 16.664 20.826 6.286 35.653zM958.271 787.989c21.508 30.745 17.666 72.534-9.106 98.824-12.9 12.684-12.996 23.278-0.33 36.198 12.68 12.918 23.282 13.005 36.184 0.332 44.609-43.826 51.020-113.479 15.161-164.719-10.378-14.825-20.802-16.667-35.622-6.288-14.822 10.379-16.664 20.826-6.286 35.653z" />
<glyph unicode="&#xf04a;" glyph-name="annex" d="M503.040-38.034c-20.132 0.087-36.418 16.427-36.418 36.571 0 10.061 4.063 19.173 10.637 25.785l390.215 390.398c47.328 47.305 76.602 112.668 76.602 184.869 0 144.356-117.023 261.379-261.379 261.379-72.155 0-137.481-29.237-184.778-76.511l-364.433-364.433c-33.132-33.132-53.625-78.904-53.625-129.463 0-101.117 81.971-183.088 183.088-183.088 50.558 0 96.33 20.493 129.463 53.625v0l342.309 341.76c17.221 18.175 27.811 42.785 27.811 69.868 0 56.15-45.519 101.669-101.669 101.669-27.083 0-51.693-10.59-69.914-27.854l0.046 0.043-274.286-274.286c-6.471-5.901-15.116-9.515-24.605-9.515-20.198 0-36.571 16.374-36.571 36.571 0 9.444 3.579 18.051 9.455 24.54l-0.028-0.031 274.286 274.286c30.712 27.351 71.421 44.063 116.034 44.063 96.546 0 174.811-78.266 174.811-174.811 0-44.476-16.609-85.072-43.964-115.925l0.158 0.182-342.309-342.309c-46.36-46.337-110.393-74.996-181.12-74.996-141.499 0-256.207 114.708-256.207 256.207 0 70.772 28.695 134.843 75.086 181.211l364.435 364.252c60.532 60.532 144.157 97.972 236.526 97.972 184.738 0 334.498-149.76 334.498-334.498 0-92.369-37.44-175.994-97.972-236.526l-390.4-390.4c-6.607-6.555-15.707-10.606-25.754-10.606-0.010 0-0.021 0-0.031 0h0.002z" />
<glyph unicode="&#xf04b;" glyph-name="related" d="M918.304 658.448l-248.576-248.576c-5.788-5.775-13.777-9.345-22.6-9.345s-16.812 3.571-22.601 9.346l-22.591 22.591 248.576 248.576-90.4 90.4-248.576-248.576-22.592 22.592c-5.775 5.788-9.345 13.777-9.345 22.6s3.571 16.812 9.346 22.601l248.655 248.575c5.788 5.775 13.777 9.345 22.6 9.345s16.812-3.571 22.601-9.346l135.583-135.583c5.751-5.784 9.305-13.757 9.305-22.56 0-8.843-3.587-16.848-9.385-22.64v0zM578.832 545.248c5.633 5.048 13.115 8.135 21.318 8.135 17.673 0 32-14.327 32-32 0-8.211-3.093-15.7-8.176-21.365l0.026 0.030-135.216-135.248 45.344-45.344c5.775-5.788 9.345-13.777 9.345-22.6s-3.571-16.812-9.346-22.601l-248.575-248.559c-5.788-5.775-13.777-9.345-22.6-9.345s-16.812 3.571-22.601 9.346l-135.583 135.583c-5.775 5.788-9.345 13.777-9.345 22.6s3.571 16.812 9.346 22.601l248.575 248.591c5.788 5.775 13.777 9.345 22.6 9.345s16.812-3.571 22.601-9.346l45.055-45.055zM421.136 432.464l-248.576-248.576 90.4-90.4 248.576 248.576-22.752 22.736-45.584-45.536c-5.656-5.14-13.204-8.286-21.486-8.286-17.673 0-32 14.327-32 32 0 8.283 3.147 15.83 8.31 21.513l-0.024-0.026 45.552 45.552z" />
<glyph unicode="&#xf04c;" glyph-name="id" d="M198.4 179.2v550.4h70.4v-550.4h-70.4zM403.2 179.2v550.4h192c44.8 0 76.8 0 96-6.4 32-6.4 57.6-19.2 83.2-38.4 32-25.6 51.2-57.6 64-96s19.2-83.2 19.2-128c0-44.8-6.4-76.8-12.8-108.8s-19.2-57.6-38.4-83.2-32-38.4-51.2-51.2-38.4-19.2-64-25.6-57.6-6.4-89.6-6.4h-198.4zM473.6 243.2h115.2c38.4 0 64 6.4 83.2 12.8s38.4 19.2 51.2 25.6c19.2 19.2 32 38.4 38.4 70.4s12.8 64 12.8 108.8c0 57.6-6.4 102.4-25.6 134.4s-44.8 51.2-70.4 64c-19.2 6.4-51.2 12.8-96 12.8h-108.8v-428.8z" />
<glyph unicode="&#xf04d;" glyph-name="money" d="M512 903.111c250.311 0 455.111-204.8 455.111-455.111s-204.8-455.111-455.111-455.111-455.111 204.8-455.111 455.111 204.8 455.111 455.111 455.111zM512 960c-281.6 0-512-230.4-512-512s230.4-512 512-512 512 230.4 512 512-230.4 512-512 512zM711.111 356.978h-170.667v113.778h170.667c14.222 0 28.444 14.222 28.444 28.444 0 17.067-14.222 28.444-28.444 28.444h-130.844l142.222 142.222c11.378 11.378 11.378 28.444 0 39.822s-28.444 11.378-39.822 0l-170.667-170.667-170.667 170.667c-11.378 11.378-28.444 11.378-39.822 0s-11.378-28.444 0-39.822l142.222-142.222h-130.844c-14.222 0-28.444-11.378-28.444-28.444 0-14.222 14.222-28.444 28.444-28.444h170.667v-113.778h-170.667c-14.222 0-28.444-14.222-28.444-28.444s14.222-28.444 28.444-28.444h170.667v-142.222c0-14.222 14.222-28.444 28.444-28.444s28.444 14.222 28.444 28.444v142.222h170.667c14.222 0 28.444 14.222 28.444 28.444s-14.222 28.444-28.444 28.444v0z" />
<glyph unicode="&#xf04e;" glyph-name="calculation" d="M919.040 704l-391.040 222.72c-4.59 2.695-10.109 4.287-16 4.287s-11.41-1.592-16.151-4.369l0.151 0.082-391.040-222.72c-9.578-5.604-15.927-15.812-16-27.51v-451.21c0.073-11.708 6.422-21.916 15.849-27.438l0.151-0.082 391.040-225.92c4.59-2.695 10.109-4.287 16-4.287s11.41 1.592 16.151 4.369l-0.151-0.082 391.040 220.16c9.578 5.604 15.927 15.812 16 27.51v192.010c0 17.673-14.327 32-32 32s-32-14.327-32-32v0-153.6l-176 103.040v183.68c0.003 0.122 0.005 0.266 0.005 0.41 0 5.762-3.046 10.813-7.616 13.63l-159.429 91.56v202.88l343.040-197.76v-85.12c0-17.673 14.327-32 32-32s32 14.327 32 32v0 103.68c0.054 0.694 0.084 1.503 0.084 2.319 0 11.816-6.404 22.137-15.931 27.679l-0.153 0.082zM496 652.8l-151.040-89.6-176 101.12 327.040 188.8zM152.96 639.36l176-104.32v-174.080l-176-101.76zM168.96 234.24l176 98.56 151.040-87.040v-202.88zM680.96 335.36l175.36-101.12-328.32-191.36v202.88zM664.96 362.88l-152.96-89.6-151.040 87.68v174.080l151.040 87.68 151.040-87.040z" />
<glyph unicode="&#xf04f;" glyph-name="phone" d="M648.533 823.467h-261.689c-56.559 0-102.4-45.841-102.4-102.4v-534.756c0-56.559 45.841-102.4 102.4-102.4h261.689c56.559 0 102.4 45.841 102.4 102.4v534.756c0 56.559-45.841 102.4-102.4 102.4zM517.689 129.422c-15.713 0-28.444 12.732-28.444 28.444s12.732 28.444 28.444 28.444 28.444-12.732 28.444-28.444c0-15.713-12.732-28.444-28.444-28.444zM694.044 220.444h-352.711v466.489h352.711v-466.489z" />
<glyph unicode="&#xf050;" glyph-name="score" d="M1011.249 499.101l-148.387-148.308c-9.86-9.84-14.347-24.010-12.024-37.904l35.030-209.395c4.625-27.69-16.807-50.164-41.151-50.164-6.416 0-13.048 1.574-19.464 5.018l-183.417 98.872c-5.639 3.108-12.36 4.937-19.508 4.937-7.105 0-13.787-1.806-19.614-4.985l0.215 0.107-183.477-98.794c-5.573-3.049-12.208-4.842-19.263-4.842-0.078 0-0.155 0-0.233 0.001h0.012c-24.344 0-45.894 22.77-41.269 50.459l35.148 209.336c0.689 43.375-39.458 15.409-39.458 15.409-1.653 0.571-16.531 0.807-29.914-9.25l-107.846-69.47c-5.845-4.369-33.023-19.68-39.36-19.68-16.334 0-20.034 20.507-19.68 39.36v137.76c0.197 10.391-9.84 20.664-18.224 26.647l-126.267 90.292c-21.097 15.095-15.724 48.196 9.112 55.99l148.623 46.76c9.86 3.090 17.614 11.021 20.723 20.959l47.015 149.942c4.526 14.386 17.318 22.829 30.189 22.829 9.505 0 19.031-3.090 25.328-12.143l88.934-125.44c5.825-8.344 15.311-8.6 25.446-8.6h0.453l83.66-3.503c-6.219-12.084-17.594-25.19-30.819-27.158l-114.124-12.3-71.97 110.287-26.804-113.376c2.46 7.793-9.564-45.087-60.496-61.087l-109.499-22.337 94.818-60.044c24.994-17.869 43.532-46.464 42.942-77.716v-98.4l72.403 60.693c33.121 24.856 89.76 17.614 65.357 18.027l-118.080 118.080c12.615-12.615-49.712 35.562 19.68 59.040l137.76 19.68 59.040 19.68c21.983 3.267 58.489 77.362 39.36 39.36l92.771 172.928c6.706 14.213 20.917 23.872 37.385 23.872 0.030 0 0.060 0 0.090 0h-0.005c14.898 0 29.796-7.97 37.451-23.872l91.728-190.522c5.959-12.362 17.472-21.227 31.211-23.408l0.238-0.031 205.105-30.543c34.263-5.117 47.94-48.275 23.124-73.052zM774.401 541.413c-33.18 4.94-61.894 26.588-76.772 57.525l-75.237 156.751-90.882-151.319c7.99 16.61-39.36-59.040-39.36-59.040l-189.223-29.087 131.108-115.226 19.798-87.084c-14.484-63.763-40.403-201.562-40.403-201.562l160.116 99.286c-14.209-7.656 6.593 7.203 47.586 7.36-45.205-0.571 30.347 2.952 48.531-6.849l157.046-80.117-39.36 216.48c2.499-14.976-11.651 1.712 33.594 46.976l120.894 120.855-167.437 25.053z" />
<glyph unicode="&#xf051;" glyph-name="date" d="M371.2 883.2h275.2v-60.8h-275.2v60.8zM780.8 883.2v-60.8h140.8v-131.2h-832v131.2h140.8v60.8h-201.6v-912h960v908.8h-208zM924.8 35.2h-832v588.8h832v-588.8zM272 940.8h57.6v-169.6h-57.6v169.6zM684.8 940.8h57.6v-169.6h-57.6v169.6zM284.8 425.6v-38.4c25.6 16 48 32 64 48v-268.8h38.4v336h-22.4c-19.2-28.8-48-54.4-80-76.8v0 0 0zM707.2 313.6c-3.2 12.8-9.6 25.6-16 38.4s-19.2 22.4-35.2 28.8-32 9.6-48 12.8c-16 0-35.2-3.2-54.4-12.8 6.4 19.2 12.8 48 19.2 83.2h124.8v35.2h-153.6c-22.4-102.4-35.2-160-38.4-166.4l32-3.2c9.6 12.8 22.4 22.4 38.4 28.8 16 3.2 32 3.2 44.8 0s22.4-12.8 32-22.4c9.6-12.8 12.8-25.6 12.8-41.6s-3.2-32-6.4-44.8c-6.4-12.8-16-25.6-28.8-32s-32-9.6-54.4-6.4c-22.4 3.2-38.4 22.4-48 57.6l-35.2-9.6c6.4-32 19.2-54.4 35.2-67.2s35.2-19.2 54.4-22.4c19.2 0 35.2 0 51.2 6.4s28.8 12.8 38.4 22.4c9.6 9.6 19.2 22.4 22.4 38.4 6.4 16 9.6 28.8 9.6 44.8 6.4 6.4 6.4 19.2 3.2 32v0 0 0zM707.2 313.6v0z" />
<glyph unicode="&#xf052;" glyph-name="num" d="M208 255.9h-52.7v357c-12.7-12.9-29.3-25.7-50-38.6-20.6-12.9-39.1-22.5-55.5-28.9v54.2c29.5 14.7 55.3 32.6 77.3 53.5 22.1 21 37.7 41.3 46.9 61h34v-458.2zM620.2 309.7v-53.8h-283.9c-0.4 13.5 1.7 26.5 6.2 38.9 7.2 20.5 18.8 40.8 34.7 60.7s38.9 42.9 69 69.1c46.7 40.7 78.2 72.9 94.6 96.6 16.4 23.8 24.6 46.2 24.6 67.4 0 22.2-7.5 40.9-22.4 56.2-14.9 15.2-34.4 22.9-58.4 22.9-25.4 0-45.7-8.1-60.9-24.3s-23-38.6-23.1-67.2l-54.2 5.9c3.7 42.9 17.7 75.7 41.9 98.2s56.7 33.8 97.6 33.8c41.2 0 73.8-12.1 97.9-36.4 24-24.3 36-54.4 36-90.3 0-18.3-3.5-36.2-10.5-53.8s-18.7-36.2-35-55.7-43.4-46.3-81.3-80.3c-31.6-28.2-52-47.4-60.9-57.4-9-10.1-16.4-20.2-22.3-30.3h210.4zM677 376.3l52.7 7.5c6.1-31.7 16.4-54.6 30.9-68.6s32.3-21 53.2-21c24.8 0 45.7 9.1 62.8 27.4s25.6 40.9 25.6 67.8c0 25.7-7.9 46.9-23.7 63.6s-35.9 25.1-60.4 25.1c-10 0-22.4-2.1-37.2-6.2l5.9 49.2c3.5-0.4 6.3-0.6 8.5-0.6 22.5 0 42.7 6.2 60.6 18.7 18 12.4 27 31.6 27 57.6 0 20.5-6.5 37.6-19.6 51-13.1 13.5-30 20.2-50.7 20.2-20.5 0-37.6-6.8-51.3-20.5s-22.5-34.2-26.4-61.6l-52.7 10c6.4 37.6 21.1 66.6 43.9 87.3 22.9 20.6 51.3 31 85.3 31 23.4 0 45-5.3 64.7-16s34.8-25.3 45.3-43.7c10.4-18.5 15.7-38.1 15.7-58.8 0-19.7-5-37.7-14.9-53.8-10-16.2-24.7-29.1-44.2-38.6 25.4-6.2 45.1-19.1 59.2-38.7s21.1-44.1 21.1-73.6c0-39.8-13.7-73.6-41-101.3s-61.9-41.5-103.7-41.5c-37.7 0-69 11.9-93.9 35.8-24.9 23.4-39.1 54.4-42.7 92.3z" />
<glyph unicode="&#xf053;" glyph-name="count" d="M960 188.8l-70.4 19.2c-102.4-230.4-374.4-336-604.8-233.6-166.4 73.6-272 236.8-272 419.2 3.2 233.6 182.4 432 416 454.4v96h57.6c268.8 3.2 537.6-230.4 537.6-521.6 0-80-22.4-163.2-64-233.6zM422.4 332.8l3.2 454.4c-192-28.8-352-192-352-390.4 3.2-220.8 179.2-396.8 396.8-396.8 147.2 0 300.8 89.6 355.2 227.2l-339.2 89.6c0 0-64 16-64 16zM486.4 883.2v-505.6l428.8-115.2c28.8 48 41.6 102.4 41.6 160 0 249.6-240 460.8-470.4 460.8v0z" />
<glyph unicode="&#xf054;" glyph-name="doc" d="M510.163 614.704c0 14.818-12.612 26.831-28.173 26.831h-263.296c-15.56 0-28.174-12.012-28.174-26.831s12.613-26.832 28.174-26.832h263.296c15.56 0 28.173 12.016 28.173 26.832zM328.126 455.201h-109.431c-15.56 0-28.174-12.013-28.174-26.832s12.613-26.832 28.174-26.832h109.431c15.56 0 28.174 12.013 28.174 26.832 0.001 14.82-12.613 26.832-28.174 26.832zM190.521 242.037c0-14.818 12.613-26.831 28.174-26.831h547.536c15.558 0 28.172 12.012 28.172 26.831s-12.613 26.833-28.172 26.833h-547.536c-15.555 0-28.174-12.014-28.174-26.833zM952.339 887.949c-11.003 11.002-26.795 8.955-37.797-2.047l-552.399-551.377c-11.002-11.003-13.048-27.823-2.047-38.824 5.5-5.495 12.709-8.249 19.919-8.249 7.208 0 12.371 4.799 17.878 10.295l552.399 552.407c11.002 11.002 13.048 26.792 2.047 37.794zM867.597 87.033c0-16.376-17.42-33.796-33.795-33.796h-682.674c-16.376 0-33.797 17.42-33.797 33.796v682.671c0 16.38 17.42 33.8 33.797 33.8h552.068v52.25h-552.068c-47.525 0-86.048-38.527-86.048-86.050v-682.671c0-47.525 38.527-86.048 86.048-86.048h682.674c47.519 0 86.046 38.522 86.046 86.048v551.778h-52.251v-551.778z" />
<glyph unicode="&#xf055;" glyph-name="ques-ans" d="M925.582 124.302h-244.053l-132.551-142.222c-20.48-20.48-52.907-20.48-73.387 0 0 0 0 0 0 0l-133.12 142.222h-244.053c-42.667 0-77.369 25.031-77.369 67.698v656.498c-0.569 42.667 34.133 77.369 76.8 77.369 0 0 0 0 0 0h827.164c42.667 0 77.369-34.702 77.369-77.369v-656.498c1.138-42.667-33.564-67.698-76.8-67.698zM652.516 159.004l18.204 17.067h254.862c14.222 0 25.6 1.707 25.6 15.929v656.498c0 14.222-11.378 25.6-25.6 25.6h-827.164c-14.222 0-25.6-11.378-25.6-25.6v-656.498c0-14.222 11.378-15.929 25.6-15.929h254.862l18.204-17.067c0 0 140.516-140.516 140.516-140.516l140.516 140.516zM486.4 305.209c0 14.222 11.378 25.6 25.6 25.6 0 0 0 0 0 0 14.222 0 25.6-11.378 25.6-25.6v-26.169c0-14.222-11.378-25.6-25.6-25.6 0 0 0 0 0 0-14.222 0-25.6 11.378-25.6 25.6v26.169zM567.182 445.724c-5.12-1.707-10.24-3.982-15.36-6.827-9.102-3.982-14.791-13.084-14.791-23.324 0-4.551 0-9.102-1.138-13.084-2.844-12.516-14.791-21.049-26.738-19.911-13.084 1.138-23.324 11.947-23.893 25.031-1.138 36.409 13.653 63.147 46.649 78.507 4.551 2.276 9.102 3.982 13.653 5.689 44.942 15.929 72.818 60.302 67.698 107.52s-42.098 85.333-88.747 91.591c-56.889 7.396-108.658-32.427-116.053-88.747-0.569-3.413-0.569-6.827-1.138-10.809 0-3.413 0-6.827-1.138-10.24-3.413-11.947-15.36-19.911-27.876-18.204-13.084 1.707-22.756 13.084-22.756 26.169 0.569 38.116 12.516 72.249 37.547 100.693 41.529 46.649 93.867 64.284 154.738 48.924s98.987-56.32 113.778-117.76c2.276-10.24 2.844-21.618 4.551-32.427-0.569-63.716-39.253-119.467-98.987-142.791z" />
<glyph unicode="&#xf056;" glyph-name="select" d="M839.68 514.56h-225.28l112.64-122.88zM957.44 765.44h-875.52c-10.24 0-20.48-10.24-20.48-25.6v-522.24c0-10.24 10.24-20.48 25.6-20.48h875.52c10.24 0 25.6 10.24 25.6 20.48v522.24c-5.12 15.36-15.36 25.6-30.72 25.6zM906.24 294.4c0-10.24-10.24-15.36-20.48-15.36h-727.040c-10.24 0-20.48 5.12-20.48 15.36v373.76c0 10.24 10.24 15.36 20.48 15.36h727.040c10.24 0 20.48-5.12 20.48-15.36v-373.76z" />
<glyph unicode="&#xf057;" glyph-name="call" d="M575.7 312.9l69.4 69.2 13.3-2.3c1.7-0.3 4.9-0.9 9.4-1.7 7.4-1.3 15.7-2.9 24.6-4.5 25.5-4.8 50.9-9.8 74.8-14.9 17.3-3.7 33.1-7.3 47-10.7 27.6-6.8 47.3-12.9 59.1-18.6 43-20.8 60-65.5 53.4-122-9.7-81.3-97-174.3-204.4-175.4-121-1.2-291.4 87.7-411.9 214.7-145.1 152.9-228.6 306.4-212.4 435 8.5 67.1 40.2 115.9 87.8 147.2 32.4 21.3 69.4 32.5 97.9 34.6 38.2 2.8 69.6-9.6 92.5-38 9.7-12 19.7-36.1 32.2-73.3 3.6-10.9 7.4-22.8 11.3-35.4 7-23 14.1-47.6 20.9-72.2 2.4-8.6 4.5-16.6 6.4-23.7 1.1-4.3 2-7.4 2.4-9.1l3.7-14.2-80.4-81.8c44.5-89 122.6-169.8 203-202.9zM589.2 252.9l-15.3 5.1c-105.4 35.6-205.4 139.4-256.3 252.3l-7.3 16.2 85 86.4c-1.5 5.6-3.1 11.6-4.9 17.9-6.6 24.1-13.5 48.2-20.4 70.7-3.8 12.3-7.4 23.7-10.9 34.2-10.2 30.5-19.1 52-23.3 57.2-11.8 14.6-26.4 20.4-48.2 18.8-20.2-1.5-48.7-10.1-73.1-26.2-35.2-23.2-58.3-58.6-64.8-110.3-13.8-108.7 63.1-250.2 198.4-392.7 111.4-117.4 268.9-199.5 373.7-198.5 79.2 0.8 146.4 72.5 153.2 129.4 4.3 36.6-4.3 59.4-24.4 69.1-7.5 3.6-24.7 8.9-48.9 14.9-13.4 3.3-28.6 6.8-45.4 10.4-23.3 5-48.4 10-73.5 14.7-7.2 1.3-13.9 2.6-20.1 3.7l-73.5-73.3z" />
<glyph unicode="&#xf058;" glyph-name="single-select" d="M973.12 447.871c0-42.403-34.377-76.776-76.789-76.776h-767.826c-42.401 0-76.778 34.375-76.778 76.776 0 42.41 34.377 76.776 76.778 76.776h767.826c42.412 0 76.789-34.366 76.789-76.776zM896.332 575.843h-767.826c-70.674 0-127.963-57.291-127.963-127.972 0-70.672 57.291-127.963 127.963-127.963h767.826c70.683 0 127.974 57.291 127.974 127.963 0 70.681-57.291 127.972-127.974 127.972zM255.902 704.052c18.103 0 25.593 7.5 25.593 25.593 0 18.103-7.488 25.593-25.593 25.593h-102.372c-18.105 0-25.593-7.488-25.593-25.593 0-18.092 7.488-25.593 25.593-25.593h102.372zM460.632 704.052c18.094 0 25.593 7.5 25.593 25.593 0 18.103-7.498 25.593-25.593 25.593h-102.372c-18.103 0-25.593-7.488-25.593-25.593 0-18.092 7.488-25.593 25.593-25.593h102.372zM665.364 704.052c18.103 0 25.603 7.5 25.603 25.593 0 18.103-7.498 25.593-25.603 25.593h-102.372c-18.103 0-25.603-7.488-25.603-25.593 0-18.092 7.498-25.593 25.603-25.593h102.372zM870.096 704.052c18.105 0 25.593 7.5 25.593 25.593 0 18.103-7.488 25.593-25.593 25.593h-102.371c-18.105 0-25.593-7.488-25.593-25.593 0-18.092 7.488-25.593 25.593-25.593h102.371zM767.725 959.998c-18.105 0-25.593-7.498-25.593-25.603 0-18.092 7.488-25.593 25.593-25.593h102.371c18.105 0 25.593 7.5 25.593 25.593 0 18.105-7.488 25.603-25.593 25.603h-102.371zM153.531 959.998c-18.105 0-25.593-7.498-25.593-25.603 0-18.092 7.488-25.593 25.593-25.593h102.372c18.103 0 25.593 7.5 25.593 25.593 0 18.105-7.488 25.603-25.593 25.603h-102.372zM358.261 959.998c-18.103 0-25.593-7.498-25.593-25.603 0-18.092 7.488-25.593 25.593-25.593h102.372c18.094 0 25.593 7.5 25.593 25.593 0 18.105-7.498 25.603-25.593 25.603h-102.372zM562.993 959.998c-18.103 0-25.603-7.498-25.603-25.603 0-18.092 7.498-25.593 25.603-25.593h102.372c18.103 0 25.603 7.5 25.603 25.593 0 18.105-7.498 25.603-25.603 25.603h-102.372zM65.076 787.985c-21.533 30.745-17.677 72.536 9.106 98.825 12.909 12.683 13.005 23.277 0.332 36.197-12.683 12.918-23.279 13.005-36.197 0.332-44.63-43.826-51.046-113.479-15.17-164.717 10.381-14.825 20.814-16.669 35.641-6.288 14.825 10.379 16.669 20.825 6.288 35.65zM958.689 787.985c21.522 30.745 17.677 72.536-9.106 98.825-12.909 12.683-13.005 23.277-0.332 36.197 12.683 12.918 23.279 13.005 36.197 0.332 44.63-43.826 51.046-113.479 15.168-164.717-10.381-14.825-20.814-16.669-35.641-6.288-14.824 10.379-16.666 20.825-6.287 35.65zM767.725 191.935c-18.105 0-25.593-7.498-25.593-25.593 0-18.103 7.488-25.593 25.593-25.593h102.371c18.105 0 25.593 7.488 25.593 25.593 0 18.094-7.488 25.593-25.593 25.593h-102.371zM255.902-64c18.103 0 25.593 7.488 25.593 25.593 0 18.094-7.488 25.593-25.593 25.593h-102.372c-18.105 0-25.593-7.498-25.593-25.593 0-18.103 7.488-25.593 25.593-25.593h102.372zM460.632-64c18.094 0 25.593 7.488 25.593 25.593 0 18.094-7.498 25.593-25.593 25.593h-102.372c-18.103 0-25.593-7.498-25.593-25.593 0-18.103 7.488-25.593 25.593-25.593h102.372zM153.531 191.935c-18.105 0-25.593-7.498-25.593-25.593 0-18.103 7.488-25.593 25.593-25.593h102.372c18.103 0 25.593 7.488 25.593 25.593 0 18.094-7.488 25.593-25.593 25.593h-102.372zM358.261 191.935c-18.103 0-25.593-7.498-25.593-25.593 0-18.103 7.488-25.593 25.593-25.593h102.372c18.094 0 25.593 7.488 25.593 25.593 0 18.094-7.498 25.593-25.593 25.593h-102.372zM562.993 191.935c-18.103 0-25.603-7.498-25.603-25.593 0-18.103 7.498-25.593 25.603-25.593h102.372c18.103 0 25.603 7.488 25.603 25.593 0 18.094-7.498 25.593-25.603 25.593h-102.372zM870.096-64c18.105 0 25.593 7.488 25.593 25.593 0 18.094-7.488 25.593-25.593 25.593h-102.371c-18.105 0-25.593-7.498-25.593-25.593 0-18.103 7.488-25.593 25.593-25.593h102.371zM665.364-64c18.103 0 25.603 7.488 25.603 25.593 0 18.094-7.498 25.593-25.603 25.593h-102.372c-18.103 0-25.603-7.498-25.603-25.593 0-18.103 7.498-25.593 25.603-25.593h102.372zM65.076 19.922c-21.533 30.745-17.677 72.536 9.106 98.834 12.909 12.674 13.005 23.279 0.332 36.188-12.683 12.92-23.279 13.016-36.197 0.332-44.63-43.815-51.046-113.477-15.17-164.717 10.381-14.815 20.814-16.658 35.641-6.276 14.825 10.377 16.669 20.812 6.288 35.638zM958.689 19.922c21.522 30.745 17.677 72.536-9.106 98.834-12.909 12.674-13.005 23.279-0.332 36.188 12.683 12.92 23.279 13.016 36.197 0.332 44.63-43.815 51.046-113.477 15.168-164.717-10.381-14.815-20.814-16.658-35.641-6.276-14.824 10.377-16.666 20.812-6.287 35.638z" />
<glyph unicode="&#xf059;" glyph-name="fixed-line" d="M902.4 496c-6.4 0-12.8 0-19.2 3.2-19.2 6.4-32 19.2-41.6 32l-6.4 6.4c-12.8 12.8-25.6 22.4-38.4 35.2-44.8 35.2-89.6 60.8-134.4 80-115.2 48-348.8 6.4-422.4-73.6-54.4-57.6-96-83.2-134.4-80-32 3.2-60.8 22.4-86.4 57.6-48 67.2 6.4 150.4 44.8 188.8 99.2 96 448 124.8 675.2 86.4 96-19.2 214.4-54.4 256-131.2 12.8-28.8 28.8-64 28.8-102.4s-25.6-70.4-57.6-86.4c-12.8-6.4-25.6-9.6-38.4-12.8h-3.2c-9.6-3.2-16-3.2-22.4-3.2v0zM534.4 732.8c54.4 0 108.8-6.4 150.4-25.6 51.2-22.4 102.4-51.2 150.4-89.6 16-12.8 28.8-25.6 41.6-38.4 3.2-3.2 6.4-6.4 9.6-9.6 3.2-6.4 12.8-12.8 12.8-12.8s3.2 0 9.6 0h3.2c9.6 3.2 19.2 3.2 25.6 6.4 9.6 6.4 22.4 16 25.6 35.2 0 25.6-12.8 51.2-22.4 73.6-22.4 44.8-99.2 80-211.2 99.2-227.2 41.6-547.2 3.2-624-70.4-3.2-3.2-67.2-70.4-38.4-112 22.4-32 38.4-32 41.6-32 12.8 0 41.6 9.6 89.6 60.8 64 70.4 208 115.2 336 115.2v0zM713.6 3.2h-380.8c-105.6 0-198.4 48-233.6 124.8-28.8 54.4-19.2 115.2 19.2 166.4l192 240c44.8 57.6 124.8 92.8 214.4 92.8s169.6-35.2 214.4-92.8l192-240c41.6-51.2 48-112 19.2-166.4-38.4-76.8-128-124.8-236.8-124.8zM524.8 560c-67.2 0-128-25.6-160-67.2l-192-240c-25.6-28.8-28.8-64-12.8-96 19.2-44.8 83.2-86.4 176-86.4h380.8c89.6 0 153.6 44.8 176 86.4 16 32 12.8 64-12.8 96l-192 240c-35.2 41.6-96 67.2-163.2 67.2v0zM531.2 169.6c-80 0-144 67.2-144 147.2s64 147.2 144 147.2 144-67.2 144-147.2-64-147.2-144-147.2zM531.2 400c-41.6 0-76.8-35.2-76.8-80s35.2-80 76.8-80c41.6 0 76.8 35.2 76.8 80s-35.2 80-76.8 80z" />
<glyph unicode="&#xf05a;" glyph-name="area" d="M179.2 409.6h649.6c12.8 0 25.6-12.8 25.6-25.6v0c0-12.8-12.8-25.6-25.6-25.6h-649.6c-12.8 0-25.6 12.8-25.6 25.6v0c0 12.8 9.6 25.6 25.6 25.6zM179.2 307.2h649.6c12.8 0 25.6-12.8 25.6-25.6v0c0-12.8-12.8-25.6-25.6-25.6h-649.6c-12.8 0-25.6 12.8-25.6 25.6v0c0 16 9.6 25.6 25.6 25.6zM179.2 208h649.6c12.8 0 25.6-12.8 25.6-25.6v0c0-12.8-12.8-25.6-25.6-25.6h-649.6c-12.8 0-25.6 12.8-25.6 25.6v0c0 12.8 9.6 25.6 25.6 25.6zM48 793.6v-700.8c0-28.8 22.4-54.4 51.2-54.4h828.8c28.8 0 51.2 25.6 51.2 54.4v700.8c0 28.8-22.4 54.4-51.2 54.4h-832c-25.6 0-48-25.6-48-54.4zM870.4 99.2h-716.8c-28.8 0-51.2 25.6-51.2 54.4v579.2c0 28.8 22.4 54.4 51.2 54.4h720c28.8 0 51.2-25.6 51.2-54.4v-579.2c-3.2-28.8-25.6-54.4-54.4-54.4z" />
<glyph unicode="&#xf05b;" glyph-name="multi-line" d="M64.714 309.596h892.684v-55.054h-892.684v55.054zM511.058 722.512h446.34v-55.057h-446.34v55.057zM189.226 475.632h188.953l46.288-114.748h64.742l-172.84 419.212h-62.694l-172.842-419.212h64.744l43.649 114.748zM275.649 697.28c2.731 6.857 5.173 16.597 7.32 29.23h1.467c2.536-13.895 4.88-23.636 7.030-29.23l68.55-174.288h-152.335l67.967 174.288zM511.058 584.871h446.34v-55.054h-446.34v55.054zM64.714 171.96h892.684v-55.056h-892.684v55.056zM511.058 447.234h446.34v-55.055h-446.34v55.055z" />
<glyph unicode="&#xf05c;" glyph-name="list-num" d="M394.506 689.5c0 13.179 10.691 23.859 23.859 23.859h392.325c13.169 0 23.859-10.68 23.859-23.859s-10.68-23.859-23.859-23.859h-392.325c-13.169 0-23.859 10.68-23.859 23.859zM418.365 548.997h254.495c13.179 0 23.859 10.68 23.859 23.859s-10.68 23.859-23.859 23.859h-254.495c-13.169 0-23.859-10.67-23.859-23.859s10.691-23.859 23.859-23.859zM810.691 297.175h-392.325c-13.169 0-23.859-10.68-23.859-23.859s10.691-23.859 23.859-23.859h392.325c13.169 0 23.859 10.68 23.859 23.859 0 13.189-10.691 23.859-23.859 23.859zM672.85 180.541h-254.484c-13.169 0-23.859-10.67-23.859-23.859s10.691-23.859 23.859-23.859h254.495c13.179 0 23.859 10.68 23.859 23.859s-10.691 23.859-23.869 23.859zM246.743 537.272h37.878v191.908h-31.017c-0.881-10.025-0.113-18.084-7.946-24.156s-24.3-9.103-39.178-9.103h-5.407v-26.532h45.67v-132.116zM232.765 169.615l47.565 35.379c16.394 11.264 27.167 21.709 32.328 31.345s7.731 19.999 7.731 31.089c0 18.135-6.062 32.758-18.166 43.889-12.114 11.131-28.027 16.691-47.759 16.691-19.026 0-34.243-5.632-45.65-16.896-11.418-11.264-17.111-28.242-17.111-50.954h36.69c0 13.558 2.396 22.927 7.199 28.119 4.792 5.192 11.366 7.793 19.732 7.793s14.981-2.642 19.866-7.916 7.322-11.837 7.322-19.671c0-7.834-2.263-14.909-6.799-21.248-4.526-6.339-17.132-17.029-37.816-32.072-17.684-12.943-40.868-28.703-48.036-40.141l-0.41-38.922h131.338v33.526h-88.023z" />
<glyph unicode="&#xf05d;" glyph-name="level-select" d="M896 888h-768.32c-35.328 0-64-30.784-64-68.928v-275.712c0-38.080 28.672-68.928 64-68.928h768.32c35.328 0 64 30.848 64 68.928v275.712c0 38.144-28.672 68.928-64 68.928zM896 543.36h-768.32v275.712h768.32v-275.712zM832 750.144h-256.192l128-137.792 128.192 137.792zM896 405.568h-768.32c-35.328 0-64-30.848-64-68.928v-275.712c0-38.144 28.672-68.928 64-68.928h768.32c35.328 0 64 30.784 64 68.928v275.712c0 38.016-28.672 68.928-64 68.928zM896 60.928h-768.32v275.712h768.32v-275.712zM832 267.712h-256.192l128-137.792 128.192 137.792z" />
<glyph unicode="&#xf05e;" glyph-name="tobe-read" d="M84.213 892.992h232.056v-232.057h-232.056v232.057zM404.515 804.516h553.673v-55.113h-553.673v55.113zM404.515 487.612h553.673v-55.113h-553.673v55.113zM84.213 236.269h232.056v-232.057h-232.056v232.057zM404.515 147.797h556.741v-55.113h-556.741v55.113zM176.936 434.975l-75.299 65.024-36.709-42.508 116.017-100.189 14.94 17.29 161.342 160.563-39.615 39.806-140.676-139.985z" />
<glyph unicode="&#xf05f;" glyph-name="store" d="M818.987 723.627c-45.867 50.987-205.867 65.707-306.987 65.707s-261.12-14.72-306.987-65.707c-7.68-3.2-13.013-10.667-13.013-19.627v-533.333c0-8.96 5.333-16.427 13.013-19.627 45.867-50.987 205.867-65.707 306.987-65.707s261.12 14.72 306.987 65.707c7.68 3.2 13.013 10.667 13.013 19.627v533.333c0 8.96-5.333 16.427-13.013 19.627zM789.333 352.427c-6.187-18.773-106.453-53.76-277.333-53.76-171.307 0-271.573 34.987-277.333 53.333v118.827c65.493-33.707 192.213-44.16 277.333-44.16s211.84 10.453 277.333 44.16v-118.4zM789.333 523.093c-6.187-18.773-106.453-53.76-277.333-53.76-171.307 0-271.573 34.987-277.333 53.333v118.827c65.493-33.707 192.213-44.16 277.333-44.16s211.84 10.453 277.333 44.16v-118.4zM512 746.667c169.813 0 269.867-34.56 277.333-53.333-7.253-18.773-107.307-53.333-277.333-53.333-170.88 0-271.147 34.987-277.333 52.693v0.213c6.187 18.773 106.453 53.76 277.333 53.76zM512 128c-171.307 0-271.573 34.987-277.333 53.333v118.827c65.493-33.707 192.213-44.16 277.333-44.16s211.84 10.453 277.333 44.16v-118.4c-6.187-18.773-106.453-53.76-277.333-53.76z" />
</font>
</defs>
</svg>
